<svg width="16" height="16" viewBox="0 0 16 16" fill="none" xmlns="http://www.w3.org/2000/svg">
<g clip-path="url(#clip0_992_5412)">
<path d="M8.00109 0C5.71536 0 3.84689 1.86847 3.84689 4.1542C3.84689 6.43993 5.71536 8.3084 8.00109 8.3084C10.2868 8.3084 12.1553 6.43993 12.1553 4.1542C12.1553 1.86847 10.2868 0 8.00109 0Z" fill="#C5C5C5"/>
<path d="M15.1304 11.6285C15.0215 11.3564 14.8764 11.1024 14.7132 10.8666C13.8787 9.63302 12.5907 8.8167 11.1395 8.61715C10.9581 8.59903 10.7585 8.63528 10.6134 8.74413C9.85149 9.30649 8.94448 9.59673 8.00114 9.59673C7.05781 9.59673 6.1508 9.30649 5.38889 8.74413C5.24375 8.63528 5.0442 8.58087 4.86281 8.61715C3.41156 8.8167 2.10545 9.63302 1.28913 10.8666C1.12587 11.1024 0.980727 11.3745 0.871907 11.6285C0.817497 11.7374 0.835622 11.8643 0.890032 11.9732C1.03517 12.2271 1.21656 12.4811 1.37982 12.6988C1.63378 13.0435 1.9059 13.3519 2.2143 13.6421C2.46826 13.8961 2.7585 14.1319 3.04878 14.3677C4.48187 15.438 6.20524 16.0004 7.98302 16.0004C9.7608 16.0004 11.4842 15.438 12.9173 14.3677C13.2075 14.1501 13.4977 13.8961 13.7517 13.6421C14.042 13.3519 14.3322 13.0435 14.5862 12.6988C14.7676 12.463 14.9309 12.2271 15.076 11.9732C15.1667 11.8643 15.1848 11.7373 15.1304 11.6285Z" fill="#C5C5C5"/>
</g>
<defs>
<clipPath id="clip0_992_5412">
<rect width="16" height="16" fill="white"/>
</clipPath>
</defs>
</svg>
