<svg width="19" height="18" viewBox="0 0 19 18" fill="none" xmlns="http://www.w3.org/2000/svg">
<path d="M18.05 8.35713C18.05 12.9576 14.292 16.6869 9.65543 16.6869C8.23708 16.6892 6.84115 16.3326 5.5976 15.6505L0.950012 17.1273L2.46526 12.6582C1.67562 11.3627 1.25876 9.87428 1.26066 8.35713C1.26066 3.75666 5.01905 0.0273438 9.65562 0.0273438C14.2922 0.0273438 18.05 3.75666 18.05 8.35713ZM9.65543 1.35392C5.76347 1.35392 2.59769 4.49557 2.59769 8.35713C2.59769 9.88948 3.0972 11.3086 3.94213 12.4632L3.06034 15.0639L5.77259 14.2019C6.9257 14.9594 8.27565 15.3622 9.65543 15.3603C13.547 15.3603 16.7132 12.2189 16.7132 8.35732C16.7132 4.49576 13.5472 1.35392 9.65543 1.35392ZM13.8945 10.2756C13.8427 10.1906 13.7057 10.1393 13.5001 10.0373C13.2941 9.93527 12.2822 9.44108 12.0941 9.37325C11.9052 9.30523 11.7679 9.27084 11.6307 9.47528C11.4937 9.67972 11.0992 10.1393 10.979 10.2756C10.8591 10.412 10.7392 10.4291 10.5332 10.3269C10.3277 10.2248 9.66455 10.0092 8.87852 9.31359C8.26691 8.77247 7.85385 8.10443 7.73377 7.8998C7.61388 7.69555 7.72123 7.58516 7.82402 7.48351C7.91674 7.39193 8.02998 7.24506 8.13277 7.12593C8.23594 7.00661 8.27014 6.92168 8.33835 6.78526C8.40732 6.64903 8.37293 6.5299 8.32125 6.42749C8.26995 6.32546 7.85803 5.32074 7.68665 4.91186C7.51527 4.50336 7.34408 4.57138 7.22381 4.57138C7.10392 4.57138 6.96655 4.55428 6.82937 4.55428C6.69219 4.55428 6.46913 4.60539 6.28046 4.80964C6.09198 5.01408 5.56055 5.50808 5.56055 6.51261C5.56055 7.51733 6.29756 8.48804 6.40073 8.62408C6.50352 8.76012 7.82383 10.8889 9.91573 11.7065C12.008 12.5238 12.008 12.2512 12.3854 12.2172C12.7623 12.1832 13.6025 11.7234 13.7744 11.2467C13.9456 10.7696 13.9456 10.3607 13.8945 10.2756Z" fill="#222222"/>
</svg>
