<svg width="10" height="11" viewBox="0 0 10 11" fill="none" xmlns="http://www.w3.org/2000/svg">
<path d="M7.10303 6.21045C7.10303 6.85791 6.91895 7.35303 6.55078 7.6958C6.18685 8.03434 5.67057 8.20361 5.00195 8.20361C4.33757 8.20361 3.80436 7.98145 3.40234 7.53711C3.00456 7.08854 2.80566 6.47917 2.80566 5.70898V5.01074C2.80566 4.26595 3.00667 3.67139 3.40869 3.22705C3.81494 2.77848 4.34603 2.5542 5.00195 2.5542C5.67904 2.5542 6.19954 2.7277 6.56348 3.07471C6.92741 3.42171 7.10938 3.91048 7.10938 4.54102H6.18262C6.18262 4.12207 6.08105 3.82373 5.87793 3.646C5.67904 3.46403 5.38704 3.37305 5.00195 3.37305C4.60417 3.37305 4.29102 3.51904 4.0625 3.81104C3.83398 4.10303 3.71973 4.50928 3.71973 5.02979V5.74707C3.71973 6.25488 3.83398 6.65479 4.0625 6.94678C4.29102 7.23877 4.60417 7.38477 5.00195 7.38477C5.39128 7.38477 5.68327 7.2959 5.87793 7.11816C6.07682 6.94043 6.17627 6.63786 6.17627 6.21045H7.10303ZM1.30762 5.37256C1.30762 6.10042 1.47689 6.77539 1.81543 7.39746C2.15397 8.0153 2.61312 8.49984 3.19287 8.85107C3.77686 9.20231 4.40739 9.37793 5.08447 9.37793C5.76156 9.37793 6.38997 9.20231 6.96973 8.85107C7.54948 8.49984 8.00863 8.0153 8.34717 7.39746C8.68571 6.77539 8.85498 6.10042 8.85498 5.37256C8.85498 4.65316 8.68783 3.98665 8.35352 3.37305C8.01921 2.75944 7.56006 2.27702 6.97607 1.92578C6.39632 1.57031 5.76579 1.39258 5.08447 1.39258C4.40739 1.39258 3.77686 1.5682 3.19287 1.91943C2.60889 2.26644 2.14762 2.74886 1.80908 3.3667C1.47477 3.98454 1.30762 4.65316 1.30762 5.37256ZM0.577637 5.37256C0.577637 4.51774 0.774414 3.72428 1.16797 2.99219C1.56576 2.26009 2.11377 1.68457 2.81201 1.26562C3.51449 0.842448 4.27197 0.630859 5.08447 0.630859C5.89697 0.630859 6.65234 0.842448 7.35059 1.26562C8.04883 1.68457 8.59473 2.26009 8.98828 2.99219C9.38607 3.72428 9.58496 4.51774 9.58496 5.37256C9.58496 6.20622 9.39453 6.98698 9.01367 7.71484C8.63281 8.44271 8.09115 9.02881 7.38867 9.47314C6.69043 9.91325 5.92236 10.1333 5.08447 10.1333C4.25081 10.1333 3.48275 9.91536 2.78027 9.47949C2.08203 9.03939 1.54036 8.4554 1.15527 7.72754C0.770182 6.99967 0.577637 6.21468 0.577637 5.37256Z" fill="#222222" fill-opacity="0.7"/>
</svg>
