<svg width="19" height="19" viewBox="0 0 19 19" fill="none" xmlns="http://www.w3.org/2000/svg">
<path d="M18.05 9.35689C18.05 13.9574 14.292 17.6867 9.65543 17.6867C8.23708 17.689 6.84115 17.3323 5.5976 16.6502L0.950012 18.1271L2.46526 13.6579C1.67562 12.3625 1.25876 10.874 1.26066 9.35689C1.26066 4.75642 5.01905 1.0271 9.65562 1.0271C14.2922 1.0271 18.05 4.75642 18.05 9.35689ZM9.65543 2.35368C5.76347 2.35368 2.59769 5.49533 2.59769 9.35689C2.59769 10.8892 3.0972 12.3084 3.94213 13.463L3.06034 16.0637L5.77259 15.2017C6.9257 15.9592 8.27565 16.362 9.65543 16.3601C13.547 16.3601 16.7132 13.2186 16.7132 9.35708C16.7132 5.49552 13.5472 2.35368 9.65543 2.35368ZM13.8945 11.2753C13.8427 11.1904 13.7057 11.1391 13.5001 11.0371C13.2941 10.935 12.2822 10.4408 12.0941 10.373C11.9052 10.305 11.7679 10.2706 11.6307 10.475C11.4937 10.6795 11.0992 11.1391 10.979 11.2753C10.8591 11.4117 10.7392 11.4288 10.5332 11.3266C10.3277 11.2246 9.66455 11.0089 8.87852 10.3133C8.26691 9.77223 7.85385 9.10419 7.73377 8.89956C7.61388 8.69531 7.72123 8.58492 7.82402 8.48327C7.91674 8.39169 8.02998 8.24482 8.13277 8.12569C8.23594 8.00637 8.27014 7.92144 8.33835 7.78502C8.40732 7.64879 8.37293 7.52966 8.32125 7.42725C8.26995 7.32522 7.85803 6.3205 7.68665 5.91162C7.51527 5.50312 7.34408 5.57114 7.22381 5.57114C7.10392 5.57114 6.96655 5.55404 6.82937 5.55404C6.69219 5.55404 6.46913 5.60515 6.28046 5.8094C6.09198 6.01384 5.56055 6.50784 5.56055 7.51237C5.56055 8.51709 6.29756 9.4878 6.40073 9.62384C6.50352 9.75988 7.82383 11.8886 9.91573 12.7062C12.008 13.5236 12.008 13.2509 12.3854 13.2169C12.7623 13.1829 13.6025 12.7231 13.7744 12.2464C13.9456 11.7693 13.9456 11.3604 13.8945 11.2753Z" fill="#45C436"/>
</svg>
