<svg width="136" height="124" viewBox="0 0 136 124" fill="none" xmlns="http://www.w3.org/2000/svg">
<path d="M85.7032 88.5467L84.0438 86.8873C83.8575 86.7013 83.5561 86.7013 83.3698 86.8873C83.1838 87.0733 83.1838 87.3752 83.3698 87.5609L85.0293 89.2204L83.9959 90.2538L90.4798 93.9969L86.7366 87.5131L85.7032 88.5467Z" fill="white"/>
<path d="M99.1291 71.642L91.8901 69.7314L91.8957 71.1929L89.5488 71.202C89.2858 71.2028 89.0732 71.4172 89.0743 71.6803C89.0752 71.9428 89.2887 72.1548 89.5509 72.1548C89.5515 72.1548 89.5521 72.1548 89.5526 72.1548L91.8994 72.1457L91.905 73.6072L99.1291 71.642Z" fill="white"/>
<path d="M83.8438 58.2687C83.9544 58.2687 84.0654 58.2305 84.1556 58.1525L85.9298 56.6163L86.8867 57.7212L91.0851 51.5223L84.3495 54.791L85.3061 55.8959L83.5319 57.4321C83.3331 57.6044 83.3115 57.9052 83.4837 58.1043C83.5775 58.2129 83.7103 58.2687 83.8438 58.2687Z" fill="white"/>
<path d="M66.9343 41.2755L65.0786 48.5287L66.5401 48.5121L66.5667 50.8589C66.5696 51.1202 66.7824 51.3299 67.0429 51.3299C67.0447 51.3299 67.0467 51.3299 67.0485 51.3299C67.3115 51.327 67.5224 51.1112 67.5195 50.8481L67.4926 48.5016L68.9541 48.4849L66.9343 41.2755Z" fill="white"/>
<path d="M49.9808 56.5932L51.6653 58.2275C51.7579 58.3172 51.8776 58.3618 51.997 58.3618C52.1211 58.3618 52.2455 58.3134 52.339 58.217C52.522 58.0281 52.5177 57.7264 52.3287 57.5434L50.6445 55.9093L51.6621 54.8605L45.1222 51.216L48.9631 57.6426L49.9808 56.5932Z" fill="white"/>
<path d="M46.3942 72.7162C46.4006 72.7165 46.407 72.7165 46.4134 72.7165C46.6678 72.7165 46.8789 72.5156 46.8894 72.2593C46.8999 71.9965 46.6952 71.7748 46.4324 71.764L44.0873 71.67L44.146 70.2097L36.8425 71.856L43.9907 74.0825L44.0494 72.6222L46.3942 72.7162Z" fill="white"/>
<path d="M52.1561 87.1428L50.4234 88.7257L49.4376 87.6468L45.4054 93.9552L52.0519 90.5087L51.0661 89.4295L52.7988 87.8465C52.9933 87.669 53.0067 87.3676 52.8292 87.1735C52.6517 86.979 52.3506 86.9656 52.1561 87.1428Z" fill="white"/>
<path opacity="0.7" d="M27.8606 82.1703L24.3148 80.0025L23.501 78.1921L23.0148 77.7991C23.0102 77.7678 23.0055 77.7346 23.0011 77.7021C22.9929 77.6464 22.9851 77.59 22.9778 77.5313C22.9672 77.449 22.9573 77.3637 22.948 77.2755C23.0388 77.2075 23.1284 77.136 23.2154 77.0595C23.3261 77.3126 24.1945 79.1113 26.5349 79.1113C30.8907 79.1113 30.4311 74.515 30.4311 74.515C30.4311 74.515 30.1683 75.3685 29.2712 75.3685C28.3736 75.3685 27.8702 74.515 27.3449 67.686C26.8199 60.8567 21.4348 61.0751 20.6032 62.2136V62.6306C20.5994 62.6306 20.5959 62.6303 20.5921 62.6303V62.6294C20.5886 62.6294 20.5854 62.6294 20.5819 62.6294V62.2136C20.1792 61.6626 18.7102 61.33 17.242 61.9044V60.5077C17.242 59.5225 16.1339 59.0539 14.9235 58.4976C14.925 58.4745 14.9299 58.4521 14.9308 58.4287L14.7588 58.4214C14.4987 58.3005 14.2362 58.1749 13.9804 58.0377C13.9804 58.0377 13.9266 58.1814 13.8116 58.3969L10.281 56.0124V55.0068L10.1026 54.9662C10.0498 54.9533 8.79795 54.6447 8.79795 53.432C8.79795 52.7005 9.46546 52.2471 10.0842 52.2471C10.4101 52.2471 10.7044 52.372 10.9135 52.6001C11.169 52.8784 11.3036 53.3111 11.3036 53.8516H11.7638C11.7638 53.1937 11.5874 52.6535 11.2522 52.2891C10.9552 51.965 10.5406 51.7869 10.0842 51.7869C9.24471 51.7869 8.33776 52.4158 8.33776 53.4317C8.33776 54.5758 9.22573 55.1641 9.82082 55.3633V56.0121L6.29054 58.3963C6.17579 58.1811 6.12177 58.0374 6.12177 58.0374C5.86627 58.1747 5.60347 58.3002 5.3433 58.4211L5.1716 58.4284C5.17248 58.4518 5.17744 58.474 5.1789 58.4973C4.57067 58.7768 3.99046 59.0352 3.56151 59.3467C3.33813 59.5091 3.15388 59.6852 3.03153 59.8881C2.92116 60.0712 2.85925 60.275 2.85925 60.5074V62.2869L2.85954 62.2872V62.2881C2.85954 62.2881 5.9016 63.5489 5.9016 66.8071C5.9016 66.9335 5.89518 67.0602 5.88846 67.1869C5.88759 67.2004 5.887 67.2141 5.88642 67.2275C5.8835 67.2748 5.88233 67.3221 5.87824 67.3694C5.87094 67.467 5.86043 67.5648 5.84962 67.6629C5.84291 67.7233 5.83765 67.7838 5.82977 67.8445C5.81371 67.968 5.79414 68.0918 5.77312 68.2159C5.76699 68.2533 5.76173 68.2907 5.75502 68.3284C5.70859 68.5882 5.65136 68.8502 5.58858 69.1138C5.5585 69.2403 5.52755 69.367 5.49455 69.4946C5.46769 69.5989 5.44082 69.7031 5.41221 69.8079C5.37892 69.9297 5.34417 70.0529 5.30942 70.1758C5.0694 71.0218 4.79492 71.8981 4.5549 72.8208C4.54497 72.859 4.53504 72.8973 4.52511 72.9358C4.39225 73.4556 4.27312 73.9905 4.17822 74.5433C4.16624 74.6122 4.15486 74.6814 4.14405 74.7509C4.10317 75.0082 4.06696 75.268 4.03893 75.5335C4.03718 75.5507 4.03397 75.567 4.03222 75.5843C3.64736 79.3654 3.4015 81.4041 3.4015 81.4041H3.40208V81.4047H10.0503V81.4041H14.5991L13.3458 82.1706C12.9502 82.4124 12.6669 82.8002 12.5577 83.2501L11.6563 86.9475H20.6032H29.5498L28.6487 83.2501C28.5389 82.7996 28.256 82.4118 27.8606 82.1703ZM10.0509 56.7812L13.3932 59.039C12.8194 59.7807 11.7769 60.6625 10.0509 60.6625C8.3252 60.6625 7.28276 59.7804 6.70898 59.0387L10.0509 56.7812ZM16.3958 78.7017C17.56 78.0952 17.9834 77.0276 17.9834 77.0276L18.0383 77.0227C18.1259 77.1015 18.2152 77.1771 18.3066 77.2475H18.2617C18.2514 77.3465 18.2404 77.4408 18.2287 77.5325C18.2187 77.6081 18.2085 77.6823 18.198 77.7538C18.196 77.7687 18.1939 77.7842 18.1916 77.7988L17.7051 78.1918L16.8913 80.0022L16.5616 80.204C16.5161 79.8013 16.4603 79.2991 16.3958 78.7017Z" fill="#808080"/>
<path d="M9.52885 56.1056H9.98904V54.7148L9.81063 54.6742C9.75777 54.6613 8.50597 54.3527 8.50597 53.14C8.50597 52.4086 9.17348 51.9554 9.79223 51.9554C10.1181 51.9554 10.4124 52.0803 10.6215 52.3084C10.877 52.5867 11.0116 53.0194 11.0116 53.5599H11.4718C11.4718 52.902 11.2954 52.3618 10.9602 51.9974C10.6633 51.6733 10.2486 51.4952 9.79223 51.4952C8.95273 51.4952 8.04578 52.1241 8.04578 53.14C8.04578 54.2841 8.93375 54.8724 9.52885 55.0716V56.1056Z" fill="white"/>
<path d="M3.10632 60.0578L9.75896 55.5648L16.4113 60.0578V61.3104H3.10632V60.0578ZM15.6448 60.4654L9.75925 56.4892L3.87312 60.4654V60.5442H15.6448V60.4654Z" fill="#F9F35C"/>
<path d="M5.61076 66.5137V66.6322C5.59762 67.2828 5.4998 67.9366 5.35146 68.6032C4.89944 70.6221 3.99979 72.7654 3.74108 75.2929C3.35622 79.0741 3.11036 81.1128 3.11036 81.1128H16.408C16.408 81.1128 16.1616 79.0741 15.7773 75.2929C15.5183 72.7654 14.6184 70.6224 14.1672 68.6032C14.0189 67.9366 13.9214 67.2828 13.9076 66.6322V66.5137C13.9076 63.255 16.9503 61.9956 16.9503 61.9956V60.2161C16.9503 58.976 15.1951 58.5546 13.6886 57.7461C13.6886 57.7461 12.7353 60.3712 9.7592 60.3712C6.78372 60.3712 5.83034 57.7461 5.83034 57.7461C4.3242 58.5546 2.56812 58.9757 2.56812 60.2161V61.9956C2.56782 61.9956 5.61076 63.255 5.61076 66.5137Z" fill="#FFC330"/>
<path d="M9.75891 81.1121H3.11094C3.11094 81.1121 3.35622 79.074 3.74166 75.2905C4.08914 71.8762 5.61017 69.1647 5.61017 66.5148C5.61017 63.2566 2.56812 61.9958 2.56812 61.9958V60.2143C2.56812 58.9744 4.32304 58.5551 5.82976 57.7451C5.82976 57.7451 6.78255 60.3717 9.75862 60.3717V81.1121H9.75891Z" fill="#FFCE30"/>
<path d="M9.75891 61.742C12.4097 61.742 14.5533 60.1585 14.6388 58.1364L14.3089 58.1224C14.2303 59.9672 12.2322 61.412 9.75891 61.412C7.28567 61.412 5.28752 59.9672 5.20955 58.1224L4.87988 58.1364C4.96485 60.1585 7.10872 61.742 9.75891 61.742Z" fill="white"/>
<path d="M5.35327 68.6026H14.169C14.1282 68.4282 14.0943 68.2527 14.0642 68.0778C14.007 67.768 13.9632 67.4638 13.9398 67.1577C13.9235 66.9825 13.913 66.8076 13.9092 66.6321H5.61286C5.60965 66.8076 5.59943 66.9825 5.5822 67.1577C5.55534 67.464 5.51533 67.768 5.45781 68.0778C5.42744 68.2527 5.39065 68.4279 5.35327 68.6026Z" fill="#FEF53D"/>
<path d="M5.4574 68.0778H14.0638C14.0066 67.768 13.9628 67.4637 13.9394 67.1577H5.58208C5.55522 67.4637 5.51521 67.768 5.4574 68.0778Z" fill="#FBFF4A"/>
<path d="M20.3113 61.9211C21.1429 60.7826 26.5277 60.5641 27.053 67.3931C27.5783 74.2224 28.0817 75.0757 28.9793 75.0757C29.8763 75.0757 30.1391 74.2222 30.1391 74.2222C30.1391 74.2222 30.5987 78.8185 26.243 78.8185C23.7259 78.8185 22.9101 76.7351 22.9101 76.7351L20.3113 76.498V61.9211Z" fill="#423C3C"/>
<path d="M12.2658 82.9576C12.375 82.5076 12.6582 82.1199 13.0539 81.8781L17.174 79.3587L20.3113 85.2755L23.4485 79.3587L27.5689 81.8781C27.9643 82.1199 28.2472 82.5076 28.357 82.9576L29.2581 86.6549H20.3113H11.3644L12.2658 82.9576Z" fill="#492A79"/>
<path d="M20.3112 81.4451L22.2901 81.6924L20.3112 85.2758L18.332 81.6924L20.3112 81.4451Z" fill="white"/>
<path d="M20.3113 82.3357L17.3635 79.2948C17.3635 79.2948 17.7881 78.7248 17.9697 76.9553H20.3113H22.6528C22.8347 78.7248 23.2587 79.2948 23.2587 79.2948L20.3113 82.3357Z" fill="#FFCEAD"/>
<path d="M17.9554 77.4615L17.4131 77.8998L16.0358 80.9635L20.3112 82.3356L17.9554 77.4615Z" fill="#FBE6E6"/>
<path d="M17.9697 76.9553H20.3112H22.6528C22.6714 77.1375 22.6928 77.3042 22.7161 77.4616C22.0121 78.0234 21.1954 78.3236 20.3112 78.3236C19.4267 78.3236 18.61 78.0231 17.906 77.4616C17.9297 77.3036 17.9516 77.1375 17.9697 76.9553Z" fill="#FCC097"/>
<path d="M20.2902 61.9211C19.458 60.7826 14.0738 60.5641 13.5482 67.3931C13.0229 74.2224 12.5198 75.0757 11.6222 75.0757C10.7249 75.0757 10.4621 74.2222 10.4621 74.2222C10.4621 74.2222 10.0025 78.8185 14.3582 78.8185C16.8756 78.8185 17.6914 76.7351 17.6914 76.7351L20.2902 76.498V61.9211Z" fill="#423C3C"/>
<path d="M20.3544 77.7626C17.5968 77.7626 15.4803 74.8733 15.4803 70.0874C15.4803 64.1189 17.2315 62.7331 20.3544 62.7331C23.4774 62.7331 25.2282 64.1189 25.2282 70.0874C25.2282 74.8733 23.1126 77.7626 20.3544 77.7626Z" fill="#FED6B7"/>
<path d="M20.2937 62.7343V77.7594C17.5658 77.7165 15.4803 74.8379 15.4803 70.0874C15.4803 64.1583 17.2093 62.7518 20.2937 62.7343Z" fill="#FFDEBF"/>
<path d="M20.2616 62.3377V62.3369C20.2684 62.3369 20.2745 62.3369 20.2809 62.3369C20.2873 62.3369 20.2938 62.3369 20.3002 62.3369V62.3377C25.6423 62.3634 25.9393 67.5526 25.7831 68.3777C25.6117 69.2841 24.9827 71.0174 24.9827 71.0174C24.528 69.3486 25.3483 66.1583 24.013 65.6551C22.6776 65.152 21.1207 66.014 20.3107 66.014C19.5007 66.014 17.9434 65.152 16.6087 65.6551C15.2737 66.1583 16.0936 69.3486 15.639 71.0174C15.639 71.0174 15.01 69.2841 14.8386 68.3777C14.6833 67.5528 14.9201 62.3634 20.2616 62.3377Z" fill="#423C3C"/>
<path d="M22.6668 77.4615L23.2091 77.8998L24.5865 80.9635L20.3113 82.3356L22.6668 77.4615Z" fill="#FBE6E6"/>
<g opacity="0.7">
<path opacity="0.7" d="M125.964 36.616C125.85 36.4563 125.635 36.4067 125.462 36.4989L122.938 37.8462L121.006 37.1588L120.925 37.1358L122.031 36.7024C122.221 36.6277 122.323 36.4192 122.263 36.2233L122.232 36.1217C122.17 35.9202 121.96 35.8037 121.756 35.8583L119.307 36.5106L119.158 36.0793L116.978 36.8289L117.022 36.955L116.805 37.0231L116.093 37.2406L111.749 38.4285L111.718 34.1437C111.718 33.1418 111.056 32.081 110.575 31.5367L110.076 30.9974L110.074 31.0026C110.074 31.0012 110.075 30.9959 110.075 30.9959L106.429 28.5305V28.5352C106.393 28.3054 106.269 28.0966 106.078 27.9579L105.656 27.6507V27.5483V26.9441C106.028 26.5014 106.345 25.951 106.59 25.301C106.591 25.2987 106.592 25.2961 106.593 25.2934C106.624 25.2082 106.655 25.1217 106.685 25.0333C106.688 25.0233 106.691 25.0131 106.695 25.0032C106.721 24.9214 106.747 24.8391 106.772 24.7547C106.777 24.7375 106.782 24.7196 106.786 24.7021C106.809 24.6239 106.831 24.5453 106.851 24.4647C106.857 24.4414 106.862 24.4171 106.868 24.3935C106.883 24.3333 106.898 24.2729 106.911 24.2113L106.904 24.3497C106.904 24.3497 107.538 25.023 107.845 23.4185C108.084 22.1649 108.141 21.3322 107.926 20.8968C109.94 16.3173 106.043 14.12 104.848 15.2002C104.848 15.2002 104.137 14.4161 102.421 14.4161C97.4641 14.4161 97.1841 19.2257 98.1377 21.6811C98.1392 22.1273 98.216 22.704 98.3529 23.4185C98.6219 24.8256 99.1416 24.4811 99.2657 24.3751C99.5399 25.5045 99.9969 26.413 100.584 27.0621V27.651L100.162 27.9582C99.9338 28.1244 99.7986 28.3892 99.7986 28.6713V28.5311L96.1524 30.9965C96.1524 30.9965 96.5755 33.0449 96.9811 35.6553C96.5755 33.0454 96.1524 30.9985 96.1524 30.9985C96.134 30.9985 96.0207 31.0663 95.8806 31.1571C95.468 31.4243 95.1322 31.7919 94.8965 32.2226L90.888 39.7168C90.6418 40.1775 90.6809 40.7385 90.9887 41.1601L95.3342 47.1134L95.1602 47.2384L96.5037 49.111L96.855 48.859C97.0205 49.7852 98.0542 50.5202 99.3305 50.5567C100.742 50.5973 101.911 49.7671 101.941 48.7031C101.96 48.0367 101.528 47.4372 100.856 47.072H102.746H103.108H103.12H108.408L108.517 43.1259C108.517 42.5223 108.545 41.8668 108.591 41.1852L109.265 42.4011C109.587 42.9819 110.281 43.2491 110.907 43.0269L118.016 40.5379L118.229 40.464L118.285 40.6246L120.464 39.875L120.327 39.4756C121.021 39.5944 122.402 39.8012 122.822 39.6411C123.295 39.4613 125.308 37.6891 125.968 37.1019C126.087 36.995 126.108 36.8152 126.014 36.6855L125.964 36.616ZM97.0243 35.9395C97.0097 35.8443 96.9954 35.7497 96.9808 35.6559C96.9951 35.7497 97.0097 35.844 97.0243 35.9395ZM97.1569 36.8379C97.1505 36.7921 97.1438 36.7465 97.1373 36.701C97.1438 36.7465 97.1502 36.7921 97.1569 36.8379ZM97.093 36.397C97.0775 36.2931 97.0623 36.1897 97.0465 36.0869C97.062 36.1897 97.0775 36.2928 97.093 36.397ZM97.3076 37.9659V37.9525C97.5377 39.7454 97.7105 41.5978 97.7105 43.1244L97.74 44.1928L97.7389 44.1911L95.3859 40.8719L97.3076 37.9659Z" fill="#808080"/>
<path opacity="0.7" d="M114.468 32.1616H129.445C129.761 32.1616 130.017 31.9052 130.017 31.5893V21.5734C130.017 21.2577 129.761 21.001 129.445 21.001H114.468C114.152 21.001 113.896 21.2574 113.896 21.5734V31.5895C113.896 31.9052 114.152 32.1616 114.468 32.1616Z" fill="#808080"/>
<path opacity="0.7" d="M130.757 32.5815H113.155C112.944 32.5815 112.773 32.7523 112.773 32.9631V33.3153C112.773 33.5261 112.944 33.6969 113.155 33.6969H130.757C130.968 33.6969 131.138 33.5261 131.138 33.3153V32.9631C131.138 32.7523 130.968 32.5815 130.757 32.5815Z" fill="#808080"/>
</g>
<path d="M105.881 27.7608L105.459 27.4536L102.722 27.9769L100.387 27.4536L99.9642 27.7608C99.7364 27.9269 99.6012 28.1918 99.6012 28.4739V30.4758C99.6012 31.0151 99.7498 31.5445 100.03 32.0053L102.174 35.5283H102.922V35.5146L102.922 35.5292H103.67L105.815 32.0059C106.096 31.5451 106.243 31.0163 106.243 30.4764V28.4739C106.244 28.1915 106.109 27.9267 105.881 27.7608Z" fill="white"/>
<path d="M119.225 37.5282L118.851 36.3827L121.56 35.6612C121.763 35.6066 121.974 35.7234 122.035 35.9246L122.066 36.0262C122.126 36.2218 122.025 36.4303 121.835 36.5054L119.225 37.5282Z" fill="#FED6B7"/>
<path d="M119.725 39.2049C119.725 39.2049 122.057 39.6599 122.624 39.4435C123.097 39.2636 125.11 37.4915 125.77 36.9042C125.89 36.7974 125.91 36.6175 125.817 36.4879L125.768 36.4195C125.653 36.2601 125.439 36.2102 125.265 36.3024L122.742 37.6497L120.809 36.9621L120.439 36.8552L118.854 36.4735L119.725 39.2049Z" fill="#FED6B7"/>
<path d="M99.0954 24.1523C99.0954 24.1523 98.4624 24.8257 98.1558 23.2211C97.8273 21.5059 97.839 20.5744 98.4279 20.3782C98.8043 20.2535 98.912 20.5735 98.912 20.5735L99.0954 24.1523Z" fill="#FFCEAD"/>
<path d="M100.387 26.5712V27.7848C100.387 28.2266 100.586 28.645 100.928 28.9248L101.986 29.7873C102.525 30.2268 103.298 30.2288 103.839 29.792L104.913 28.9248C105.259 28.6456 105.46 28.2248 105.46 27.7807V26.455L100.387 26.5712Z" fill="#FFCEAD"/>
<path d="M100.387 27.463C101.069 28.2196 101.924 28.6319 102.873 28.6319C103.868 28.6319 104.762 28.1816 105.46 27.3509V26.4539L100.387 26.5709V27.463Z" fill="#FCC097"/>
<path d="M102.872 28.0248C105.188 28.0248 106.965 25.5979 106.965 21.5789C106.965 16.5664 105.495 15.4028 102.872 15.4028C100.249 15.4028 98.7792 16.5664 98.7792 21.5789C98.7792 25.5979 100.556 28.0248 102.872 28.0248Z" fill="#FED6B7"/>
<path d="M106.708 24.1523C106.708 24.1523 107.341 24.8257 107.648 23.2211C107.975 21.5059 107.963 20.5744 107.376 20.3782C106.999 20.2535 106.891 20.5735 106.891 20.5735L106.708 24.1523Z" fill="#FFCEAD"/>
<path d="M102.923 15.4034V28.0219C105.214 27.9857 106.965 25.5688 106.965 21.5789C106.965 16.6003 105.512 15.4191 102.923 15.4034Z" fill="#FFDEBF"/>
<path d="M98.9167 22.8181C97.1773 21.9827 95.926 14.2184 102.224 14.2184C103.94 14.2184 104.651 15.0025 104.651 15.0025C105.98 13.8021 110.649 16.6511 106.821 22.3212C106.821 22.3212 107.2 19.675 105.778 18.5625C104.767 17.773 104.602 17.2088 104.602 17.2088C104.602 17.2088 103.918 18.4151 101.919 18.9223C99.9326 19.4271 99.4055 20.7146 98.9167 22.8181Z" fill="#423C3C"/>
<path d="M103.891 35.5289L103.407 32.7181H102.923H102.911H102.427L101.943 35.5289L102.923 36.1266L103.891 35.5289Z" fill="#492A79"/>
<path d="M102.923 33.0653L103.664 32.5797C103.895 32.4287 103.99 32.1382 103.892 31.8803L103.55 30.971C103.463 30.7418 103.244 30.5903 102.999 30.5903H102.923H102.923H102.847C102.602 30.5903 102.383 30.7418 102.296 30.971L101.953 31.8803C101.856 32.1376 101.951 32.4287 102.182 32.5797L102.923 33.0653H102.923Z" fill="#492A79"/>
<path d="M106.232 28.3337V30.2528C106.232 30.8312 106.061 31.3962 105.742 31.8783L102.923 36.1269L100.092 31.8783C99.7723 31.3965 99.6015 30.8312 99.6015 30.2528V28.3337L95.9553 30.7991C95.9553 30.7991 97.514 38.3371 97.514 42.9282L97.6226 46.8743H102.548H102.911H108.211L108.32 42.9282C108.32 38.3371 109.878 30.7991 109.878 30.7991L106.232 28.3337Z" fill="#FF4385"/>
<path d="M99.1357 50.3555C100.547 50.3956 101.716 49.5656 101.746 48.5017C101.777 47.4377 100.657 46.5427 99.2451 46.5026C97.8335 46.4625 96.6646 47.2925 96.6344 48.3564C96.6041 49.4204 97.724 50.3154 99.1357 50.3555Z" fill="#FED6B7"/>
<path d="M108.211 46.8743L108.32 42.9282C108.32 38.3371 109.878 30.7991 109.878 30.7991L106.232 28.3337V30.2528C106.232 30.8312 106.061 31.3962 105.742 31.8783L102.923 36.1269V46.8743H108.211Z" fill="#FF6489"/>
<path d="M107.695 35.1732H105.108V36.3657H107.695V35.1732Z" fill="#E8D4D4"/>
<path d="M120.195 39.5106L118.25 40.1906L117.819 40.3402L110.709 42.8292C110.084 43.0514 109.39 42.7839 109.068 42.2031L108.392 40.9837C108.696 36.5672 109.834 31.0175 109.875 30.809L109.88 30.7999L110.379 31.3393C110.859 31.8838 111.521 32.9444 111.521 33.9462L111.553 38.231L115.897 37.0432L116.608 36.8256L117.044 36.6893L118.799 36.15L119.034 36.7211L120.195 39.5106Z" fill="white"/>
<path d="M99.3013 46.4705L98.8341 46.8737L96.4669 48.7378L90.7915 40.9627C90.4838 40.5411 90.4447 39.9802 90.6908 39.5194L94.6994 32.0252C94.935 31.5945 95.2705 31.2272 95.6834 30.9597C95.8236 30.8689 95.9372 30.8011 95.9553 30.8011C95.9553 30.8011 96.6485 34.1559 97.111 37.7513V37.7697L95.1891 40.676L97.542 43.9952L99.3013 46.4705Z" fill="white"/>
<path d="M118.25 40.1907L117.819 40.3405L116.608 36.8265L117.043 36.6899L118.25 40.1907Z" fill="#E8D4D4"/>
<path d="M118.956 35.8844L116.777 36.634L118.082 40.4289L120.261 39.6793L118.956 35.8844Z" fill="white"/>
<path d="M95.2705 47.1006L98.2404 44.9742L98.2448 44.9696L97.9867 44.5885L97.9732 44.5978L95.0033 46.7289L95.2705 47.1006Z" fill="#E8D4D4"/>
<path d="M99.5708 46.5754L98.2272 44.7028L94.9662 47.0427L96.3098 48.9153L99.5708 46.5754Z" fill="white"/>
<path d="M129.821 31.393C129.821 31.7087 129.565 31.9653 129.249 31.9653H114.272C113.956 31.9653 113.7 31.709 113.7 31.393V21.3768C113.7 21.0612 113.956 20.8045 114.272 20.8045H129.249C129.565 20.8045 129.821 21.0609 129.821 21.3768V31.393Z" fill="white"/>
<path d="M114.272 31.7747C114.062 31.7747 113.89 31.6033 113.89 31.393V21.3768C113.89 21.1666 114.062 20.9952 114.272 20.9952H129.248C129.459 20.9952 129.63 21.1666 129.63 21.3768V31.393C129.63 31.6035 129.459 31.7747 129.248 31.7747H114.272Z" fill="#3B3636"/>
<path d="M129.272 21.4531H114.249V31.316H129.272V21.4531Z" fill="#543C79"/>
<g opacity="0.2">
<path opacity="0.2" d="M129.273 27.6759V21.4531H122.933L129.273 27.6759Z" fill="#B0ECF7"/>
</g>
<g opacity="0.2">
<path opacity="0.2" d="M115.278 31.3159H117.446L114.249 28.1769V30.3042L115.278 31.3159Z" fill="#B0ECF7"/>
</g>
<path d="M130.942 33.1187C130.942 33.3295 130.771 33.5003 130.56 33.5003H112.958C112.748 33.5003 112.577 33.3295 112.577 33.1187V32.7668C112.577 32.556 112.748 32.3852 112.958 32.3852H130.56C130.771 32.3852 130.942 32.556 130.942 32.7668V33.1187Z" fill="white"/>
<path d="M118.469 32.7681H113.7V33.1176H118.469V32.7681Z" fill="#464646"/>
<path opacity="0.7" d="M114.955 115.708L110.549 113.014L109.537 110.764L108.933 110.276C108.93 110.258 108.927 110.238 108.925 110.22C108.911 110.128 108.898 110.033 108.886 109.936C108.872 109.825 108.858 109.711 108.846 109.591H108.789C108.808 109.576 108.826 109.56 108.844 109.546C108.856 109.536 108.867 109.525 108.879 109.515C108.959 109.451 109.036 109.38 109.114 109.31L109.191 109.317C109.191 109.317 110.205 111.906 113.333 111.906C118.746 111.906 118.175 106.194 118.175 106.194C118.175 106.194 117.849 107.255 116.733 107.255C115.618 107.255 114.993 106.194 114.34 97.7083C114.049 93.9313 112.562 91.8919 110.911 90.9134C109.649 89.9326 107.977 89.44 105.873 89.44C103.428 89.44 101.564 90.1034 100.254 91.4306C98.9138 92.5472 97.8048 94.5018 97.558 97.7086C96.9051 106.195 96.2797 107.256 95.1645 107.256C94.0494 107.256 93.7229 106.195 93.7229 106.195C93.7229 106.195 93.1518 111.907 98.5643 111.907C101.492 111.907 102.568 109.639 102.693 109.349C102.801 109.444 102.91 109.539 103.022 109.623C103.011 109.731 102.999 109.834 102.986 109.934C102.975 110.023 102.963 110.11 102.951 110.194C102.947 110.221 102.943 110.25 102.939 110.276L102.334 110.764L101.323 113.014L96.9168 115.709C96.426 116.009 96.0741 116.491 95.9374 117.05L94.8176 121.645H105.936H117.053L115.933 117.05C115.798 116.49 115.446 116.008 114.955 115.708ZM105.873 89.8748C106.747 89.8748 107.538 89.9706 108.257 90.1501C107.174 90.1312 106.288 90.4626 105.962 90.9082V91.4247C105.958 91.4247 105.954 91.4247 105.95 91.4247V91.4256C105.945 91.4256 105.94 91.4262 105.936 91.4262V90.9082C105.592 90.4369 104.618 90.0947 103.45 90.1586C104.18 89.9726 104.984 89.8748 105.873 89.8748Z" fill="#808080"/>
<path d="M105.565 90.5368C104.531 89.122 97.8398 88.8502 97.1869 97.3366C96.534 105.823 95.9086 106.884 94.7934 106.884C93.6783 106.884 93.3518 105.823 93.3518 105.823C93.3518 105.823 92.7807 111.535 98.1932 111.535C101.321 111.535 102.335 108.946 102.335 108.946L105.564 108.651V90.5368H105.565Z" fill="#423C3C"/>
<path d="M115.563 116.678C115.426 116.119 115.075 115.637 114.583 115.337L109.463 112.206L105.565 119.558L101.666 112.206L96.546 115.337C96.0552 115.637 95.7033 116.119 95.567 116.678L94.4471 121.272H105.565H116.683L115.563 116.678Z" fill="#492A79"/>
<path d="M105.565 114.799L103.105 115.106L105.565 119.559L108.024 115.106L105.565 114.799Z" fill="#FFCE30"/>
<path d="M105.565 115.905L109.227 112.127C109.227 112.127 108.7 111.418 108.474 109.219H105.565H102.655C102.429 111.418 101.902 112.127 101.902 112.127L105.565 115.905Z" fill="#FFCEAD"/>
<path d="M108.492 109.848L109.166 110.392L110.878 114.2L105.565 115.905L108.492 109.848Z" fill="#FFCE30"/>
<path d="M108.474 109.219H105.565H102.655C102.632 109.445 102.605 109.653 102.576 109.848C103.451 110.546 104.466 110.92 105.565 110.92C106.664 110.92 107.679 110.546 108.553 109.848C108.524 109.653 108.497 109.445 108.474 109.219Z" fill="#FCC097"/>
<path d="M105.591 90.5368C106.625 89.122 113.316 88.8502 113.969 97.3366C114.622 105.823 115.247 106.884 116.362 106.884C117.477 106.884 117.804 105.823 117.804 105.823C117.804 105.823 118.375 111.535 112.962 111.535C109.834 111.535 108.82 108.946 108.82 108.946L105.59 108.651V90.5368H105.591Z" fill="#423C3C"/>
<path d="M105.511 110.222C108.938 110.222 111.567 106.632 111.567 100.685C111.567 93.2681 109.391 91.5456 105.511 91.5456C101.63 91.5456 99.4543 93.2681 99.4543 100.685C99.4543 106.632 102.084 110.222 105.511 110.222Z" fill="#FED6B7"/>
<path d="M105.586 91.5468V110.218C108.976 110.165 111.567 106.588 111.567 100.685C111.567 93.3169 109.419 91.5689 105.586 91.5468Z" fill="#FFDEBF"/>
<path d="M98.1455 100.927C98.0448 100.189 97.9916 99.4244 97.9916 98.6421C97.9916 92.4929 100.448 89.5034 105.502 89.5034C110.555 89.5034 113.012 92.4929 113.012 98.6421C113.012 99.4244 112.959 100.189 112.858 100.927H113.295C113.394 100.187 113.447 99.4238 113.447 98.6421C113.447 92.2 110.848 89.068 105.502 89.068C100.155 89.068 97.5563 92.2 97.5563 98.6421C97.5563 99.4238 97.6094 100.187 97.7087 100.927H98.1455Z" fill="#FFCE30"/>
<path d="M106.384 108.216C107.26 108.216 107.971 107.924 107.971 107.563C107.971 107.203 107.26 106.91 106.384 106.91C105.508 106.91 104.797 107.203 104.797 107.563C104.797 107.924 105.508 108.216 106.384 108.216Z" fill="#575757"/>
<path d="M111.148 104.888C111.148 104.888 112.642 106.008 113.367 103.338C114.142 100.484 114.116 98.9347 112.725 98.6082C111.837 98.3998 111.581 98.9335 111.581 98.9335L111.148 104.888Z" fill="#FFCE30"/>
<path d="M99.9805 104.888C99.9805 104.888 98.4866 106.008 97.7619 103.338C96.9866 100.484 97.0132 98.9347 98.4034 98.6082C99.292 98.3998 99.5475 98.9335 99.5475 98.9335L99.9805 104.888Z" fill="#FFCE30"/>
<path d="M107.971 107.727C107.888 107.727 107.817 107.664 107.808 107.58C107.8 107.491 107.864 107.411 107.954 107.401C107.984 107.398 110.902 107.078 111.551 105.057C111.579 104.971 111.67 104.925 111.756 104.952C111.842 104.979 111.889 105.071 111.862 105.157C111.147 107.383 108.116 107.713 107.987 107.726C107.982 107.727 107.976 107.727 107.971 107.727Z" fill="#C5B4B4"/>
<path d="M105.626 91.0542V91.0533C105.618 91.0533 105.61 91.0533 105.602 91.0533C105.594 91.0533 105.586 91.0533 105.578 91.0533V91.0542C98.9395 91.0857 98.5707 97.5348 98.7646 98.5597C98.9775 99.6865 99.7592 101.84 99.7592 101.84C100.324 99.7666 99.3048 95.8021 100.964 95.1763C102.623 94.5509 104.558 95.6228 105.565 95.6228C106.571 95.6228 108.506 94.5509 110.165 95.1763C111.824 95.8021 110.805 99.7666 111.37 101.84C111.37 101.84 112.151 99.6865 112.365 98.5597C112.558 97.5351 112.264 91.0857 105.626 91.0542Z" fill="#423C3C"/>
<path d="M102.637 109.848L101.963 110.392L100.252 114.2L105.565 115.905L102.637 109.848Z" fill="#FFCE30"/>
<path opacity="0.7" d="M46.0373 105.089C45.9447 104.7 45.7015 104.363 45.361 104.154L43.0773 102.746H43.0776L32.5466 96.2562L32.5454 96.2564L26.0172 92.2336C25.3079 91.7967 24.3791 92.0175 23.9422 92.7265L19.5926 99.7844L16.3587 98.9539C15.5519 98.7469 14.7302 99.2331 14.5229 100.04L11.0061 113.733C10.886 114.2 11.004 114.669 11.2764 115.024C11.4744 115.282 11.7518 115.482 12.0914 115.57L14.8862 116.287L14.887 116.287L34.0997 121.221C34.9062 121.429 35.7279 120.942 35.9356 120.136L36.2994 118.719L36.3625 118.758C37.0711 119.195 38.0003 118.974 38.4374 118.265L43.461 110.112L43.4613 110.113L45.2711 107.175L45.8539 106.229C46.0636 105.888 46.1296 105.478 46.0373 105.089Z" fill="#808080"/>
<path d="M10.6533 113.38C10.4463 114.187 10.9324 115.009 11.7392 115.216L33.7467 120.869C34.5532 121.076 35.3749 120.589 35.5825 119.783L39.0991 106.09C39.1986 105.702 39.1402 105.291 38.9367 104.947C38.7329 104.602 38.4009 104.353 38.0134 104.254L16.0059 98.6015C15.1991 98.3944 14.3775 98.8806 14.1701 99.6874L10.6533 113.38Z" fill="#C2C2C2"/>
<path opacity="0.25" d="M12.263 107.114L23.4344 100.508L35.4157 103.586L14.5333 115.935L11.7386 115.217C10.9324 115.01 10.4468 114.187 10.6538 113.38L12.263 107.114Z" fill="white"/>
<path d="M13.0296 104.104L37.9595 110.505L38.8379 107.084L13.908 100.683L13.0296 104.104Z" fill="#3B3636"/>
<path d="M13.4885 107.413L36.3124 113.274L36.9031 110.973L14.0792 105.113L13.4885 107.413Z" fill="white"/>
<path d="M20.0663 111.145L35.8217 115.19L36.0871 114.157L20.3317 110.111L20.0663 111.145Z" fill="#494949"/>
<path d="M19.5161 113.282L35.2715 117.327L35.5371 116.293L19.7817 112.247L19.5161 113.282Z" fill="#494949"/>
<path d="M18.9714 115.418L34.726 119.463L34.9916 118.429L19.2371 114.383L18.9714 115.418Z" fill="#494949"/>
<path d="M16.1724 104.41C15.7356 105.119 15.9563 106.048 16.6656 106.485L36.0094 118.405C36.7181 118.842 37.6472 118.621 38.0844 117.913L45.5012 105.876C45.7111 105.536 45.7771 105.126 45.6848 104.737C45.5923 104.347 45.349 104.011 45.0086 103.801L25.6647 91.8808C24.9558 91.444 24.0266 91.6647 23.5898 92.374L16.1724 104.41Z" fill="#FF6098"/>
<path opacity="0.25" d="M19.5666 98.9025L32.1939 95.9037L42.7249 102.394L19.121 107.999L16.6644 106.485C15.956 106.048 15.7359 105.119 16.1727 104.41L19.5666 98.9025Z" fill="white"/>
<path d="M21.1982 96.2628L43.109 109.765L44.9619 106.758L23.0511 93.256L21.1982 96.2628Z" fill="#3B3636"/>
<path d="M20.6558 99.56L40.7157 111.922L41.9617 109.9L21.9018 97.538L20.6558 99.56Z" fill="white"/>
<path d="M25.828 105.062L39.677 113.595L40.2369 112.687L26.3879 104.153L25.828 105.062Z" fill="#494949"/>
<path d="M24.6738 106.952L38.5211 115.485L39.0815 114.576L25.2341 106.043L24.6738 106.952Z" fill="#494949"/>
<path d="M23.5155 108.819L37.3638 117.352L37.9241 116.442L24.0759 107.909L23.5155 108.819Z" fill="#494949"/>
<g opacity="0.7">
<path opacity="0.1" d="M42.4903 39.2913V25.1641C42.4903 24.7815 42.1802 24.4714 41.7976 24.4714H22.5762C22.1936 24.4714 21.8835 24.7815 21.8835 25.1641V39.2913H21.8832V28.4111H20.8446V23.3029H19.113V26.3764H15.6931V28.4114H13.7881C13.4056 28.4114 13.0955 28.7215 13.0955 29.104V39.2916H10.0938V44.0827H45.3615V39.2916H42.4903V39.2913Z" fill="#808080"/>
<path opacity="0.1" d="M13.7881 23.3026H27.0998C27.4823 23.3026 27.7924 22.9925 27.7924 22.61V18.2808C27.7924 17.8982 27.4823 17.5881 27.0998 17.5881H13.7881C13.4056 17.5881 13.0955 17.8982 13.0955 18.2808V22.61C13.0952 22.9925 13.4056 23.3026 13.7881 23.3026Z" fill="#808080"/>
</g>
<path d="M45.0409 38.9704H9.77319V43.7612H45.0409V38.9704Z" fill="#454545"/>
<path d="M44.3483 39.663H10.4661V43.0686H44.3483V39.663Z" fill="#4F4F4F"/>
<path d="M27.4071 41.9862C27.7498 41.9862 28.0276 41.7084 28.0276 41.3657C28.0276 41.023 27.7498 40.7452 27.4071 40.7452C27.0644 40.7452 26.7866 41.023 26.7866 41.3657C26.7866 41.7084 27.0644 41.9862 27.4071 41.9862Z" fill="#2C2828"/>
<path d="M21.5627 38.9704H12.7747V28.7828C12.7747 28.4003 13.0848 28.0902 13.4673 28.0902H21.5627V38.9704Z" fill="white"/>
<path d="M42.1695 38.9704H21.5627V24.8434C21.5627 24.4609 21.8728 24.1508 22.2554 24.1508H41.4766C41.8591 24.1508 42.1692 24.4609 42.1692 24.8434V38.9704H42.1695Z" fill="white"/>
<path d="M27.4716 22.289C27.4716 22.6715 27.1615 22.9817 26.779 22.9817H13.4673C13.0848 22.9817 12.7747 22.6715 12.7747 22.289V17.9598C12.7747 17.5773 13.0848 17.2672 13.4673 17.2672H26.779C27.1615 17.2672 27.4716 17.5773 27.4716 17.9598V22.289Z" fill="white"/>
<path d="M26.4332 18.3062H13.8138V21.9427H26.4332V18.3062Z" fill="#BAA9C7"/>
<path d="M20.5237 32.0298H14.3762V33.0685H20.5237V32.0298Z" fill="#858585"/>
<path d="M41.1159 25.1462H22.616V29.0427H41.1159V25.1462Z" fill="#858585"/>
<path d="M37.2195 30.053H34.3044V31.3226H37.2195V30.053Z" fill="#F9C13A"/>
<path d="M41.1156 30.053H38.2006V31.3226H41.1156V30.053Z" fill="#F9C13A"/>
<path d="M37.2195 32.3134H34.3044V33.5836H37.2195V32.3134Z" fill="#402864"/>
<path d="M41.1156 32.3134H38.2006V33.5836H41.1156V32.3134Z" fill="#402864"/>
<path d="M37.2195 34.5743H34.3044V35.8437H37.2195V34.5743Z" fill="#402864"/>
<path d="M41.1156 34.5743H38.2006V35.8437H41.1156V34.5743Z" fill="#402864"/>
<path d="M25.531 30.053H22.616V31.3226H25.531V30.053Z" fill="#FF7E88"/>
<path d="M29.4272 30.053H26.5125V31.3226H29.4272V30.053Z" fill="#FF7E88"/>
<path d="M33.3236 30.053H30.4086V31.3226H33.3236V30.053Z" fill="#FF7E88"/>
<path d="M25.5307 32.3134H22.616V33.5836H25.5307V32.3134Z" fill="#FF7E88"/>
<path d="M29.4272 32.3134H26.5125V33.5836H29.4272V32.3134Z" fill="#FF7E88"/>
<path d="M33.3236 32.3134H30.4086V33.5836H33.3236V32.3134Z" fill="#FF7E88"/>
<path d="M25.5307 34.5743H22.616V35.8437H25.5307V34.5743Z" fill="#FF7E88"/>
<path d="M29.4272 34.5743H26.5125V35.8437H29.4272V34.5743Z" fill="#FF7E88"/>
<path d="M33.3236 34.5743H30.4086V35.8437H33.3236V34.5743Z" fill="#FF7E88"/>
<path d="M25.531 36.8347H22.616V38.1049H25.531V36.8347Z" fill="#FF7E88"/>
<path d="M29.4272 36.8347H26.5125V38.1049H29.4272V36.8347Z" fill="#FF7E88"/>
<path d="M33.3236 36.8347H30.4086V38.1049H33.3236V36.8347Z" fill="#FF7E88"/>
<path d="M37.2195 36.8347H34.3044V38.1049H37.2195V36.8347Z" fill="#402864"/>
<path d="M41.1156 36.8347H38.2006V38.1049H41.1156V36.8347Z" fill="#402864"/>
<path d="M20.5241 22.9819H18.7922V28.0902H20.5241V22.9819Z" fill="#BAA9C7"/>
<path d="M19.5284 26.0555H15.3723V32.0299H19.5284V26.0555Z" fill="#F9B63E"/>
<path opacity="0.5" d="M26.4329 21.3923V18.3062H23.347L26.4329 21.3923Z" fill="white"/>
<path opacity="0.5" d="M13.8138 18.8536V21.9427H16.968L13.8138 18.8536Z" fill="white"/>
<path opacity="0.1" d="M30.4728 29.0427H36.7683L32.8722 25.1462H26.5767L30.4728 29.0427Z" fill="white"/>
<path opacity="0.7" d="M82.337 3.33594H52.5641V26.4784H63.5818V30.8038H66.8368H67.1936H71.738H76.2722H76.6278H79.881V26.4784H82.337V3.33594Z" fill="#808080"/>
<path d="M82.1249 3.12421H52.3521V26.2667H82.1249V3.12421Z" fill="#535353"/>
<path d="M81.0127 4.48553H53.4648V8.58376H81.0127V4.48553Z" fill="#494949"/>
<path d="M81.0127 9.85162H53.4648V13.9501H81.0127V9.85162Z" fill="#494949"/>
<path d="M81.0127 15.218H53.4648V19.3168H81.0127V15.218Z" fill="#494949"/>
<path d="M81.0127 20.5847H53.4648V24.6829H81.0127V20.5847Z" fill="#494949"/>
<path d="M56.7698 4.74957H54.0253V8.58441H56.7698V4.74957Z" fill="#FBE6E6"/>
<path d="M56.7701 4.74884H55.3977V8.58368H56.7701V4.74884Z" fill="white"/>
<path d="M56.7698 8.21808H54.0253V8.58366H56.7698V8.21808Z" fill="#FF6098"/>
<path d="M55.3977 6.98819C55.6481 6.98819 55.8512 6.78516 55.8512 6.53471C55.8512 6.28427 55.6481 6.08124 55.3977 6.08124C55.1472 6.08124 54.9442 6.28427 54.9442 6.53471C54.9442 6.78516 55.1472 6.98819 55.3977 6.98819Z" fill="#FF6098"/>
<path d="M56.7698 4.74957H54.0253V5.11516H56.7698V4.74957Z" fill="#FF6098"/>
<path d="M60.7173 4.7489H57.9725V8.58374H60.7173V4.7489Z" fill="#FBE6E6"/>
<path d="M60.7174 4.7489H59.345V8.58374H60.7174V4.7489Z" fill="white"/>
<path d="M60.7173 8.21814H57.9725V8.58372H60.7173V8.21814Z" fill="#FF6098"/>
<path d="M59.3446 6.98825C59.595 6.98825 59.7981 6.78522 59.7981 6.53477C59.7981 6.28433 59.595 6.0813 59.3446 6.0813C59.0941 6.0813 58.8911 6.28433 58.8911 6.53477C58.8911 6.78522 59.0941 6.98825 59.3446 6.98825Z" fill="#FF6098"/>
<path d="M60.7173 4.7489H57.9725V5.11448H60.7173V4.7489Z" fill="#FF6098"/>
<path d="M64.6639 4.7489H61.9194V8.58374H64.6639V4.7489Z" fill="#FBE6E6"/>
<path d="M64.6643 4.7489H63.2919V8.58374H64.6643V4.7489Z" fill="white"/>
<path d="M64.6639 8.21814H61.9194V8.58372H64.6639V8.21814Z" fill="#FF6098"/>
<path d="M63.2919 6.98825C63.5423 6.98825 63.7453 6.78522 63.7453 6.53477C63.7453 6.28433 63.5423 6.0813 63.2919 6.0813C63.0414 6.0813 62.8384 6.28433 62.8384 6.53477C62.8384 6.78522 63.0414 6.98825 63.2919 6.98825Z" fill="#FF6098"/>
<path d="M64.6639 4.7489H61.9194V5.11448H64.6639V4.7489Z" fill="#FF6098"/>
<path d="M68.6109 4.7486H65.8665V8.58343H68.6109V4.7486Z" fill="#FBE6E6"/>
<path d="M68.6113 4.7486H67.2389V8.58343H68.6113V4.7486Z" fill="white"/>
<path d="M68.6109 8.21783H65.8665V8.58342H68.6109V8.21783Z" fill="#FF6098"/>
<path d="M67.2389 6.98825C67.4893 6.98825 67.6924 6.78522 67.6924 6.53478C67.6924 6.28433 67.4893 6.0813 67.2389 6.0813C66.9884 6.0813 66.7854 6.28433 66.7854 6.53478C66.7854 6.78522 66.9884 6.98825 67.2389 6.98825Z" fill="#FF6098"/>
<path d="M68.6109 4.7486H65.8665V5.11418H68.6109V4.7486Z" fill="#FF6098"/>
<path d="M72.5582 4.7489H69.8137V8.58374H72.5582V4.7489Z" fill="#FBE6E6"/>
<path d="M72.5585 4.7489H71.1862V8.58374H72.5585V4.7489Z" fill="white"/>
<path d="M72.5582 8.21814H69.8137V8.58372H72.5582V8.21814Z" fill="#FF6098"/>
<path d="M71.1861 6.98825C71.4366 6.98825 71.6396 6.78522 71.6396 6.53477C71.6396 6.28433 71.4366 6.0813 71.1861 6.0813C70.9357 6.0813 70.7327 6.28433 70.7327 6.53477C70.7327 6.78522 70.9357 6.98825 71.1861 6.98825Z" fill="#FF6098"/>
<path d="M72.5582 4.7489H69.8137V5.11448H72.5582V4.7489Z" fill="#FF6098"/>
<path d="M76.5051 4.7489H73.7606V8.58374H76.5051V4.7489Z" fill="#FBE6E6"/>
<path d="M76.5054 4.7489H75.1331V8.58374H76.5054V4.7489Z" fill="white"/>
<path d="M76.5051 8.21814H73.7606V8.58372H76.5051V8.21814Z" fill="#FF6098"/>
<path d="M75.133 6.98825C75.3835 6.98825 75.5865 6.78522 75.5865 6.53477C75.5865 6.28433 75.3835 6.0813 75.133 6.0813C74.8826 6.0813 74.6796 6.28433 74.6796 6.53477C74.6796 6.78522 74.8826 6.98825 75.133 6.98825Z" fill="#FF6098"/>
<path d="M76.5051 4.7489H73.7606V5.11448H76.5051V4.7489Z" fill="#FF6098"/>
<path d="M80.4524 4.7489H77.7079V8.58374H80.4524V4.7489Z" fill="#FBE6E6"/>
<path d="M80.4523 4.7489H79.08V8.58374H80.4523V4.7489Z" fill="white"/>
<path d="M80.4524 8.21814H77.7079V8.58372H80.4524V8.21814Z" fill="#FF6098"/>
<path d="M79.0799 6.98825C79.3304 6.98825 79.5334 6.78522 79.5334 6.53477C79.5334 6.28433 79.3304 6.0813 79.0799 6.0813C78.8295 6.0813 78.6265 6.28433 78.6265 6.53477C78.6265 6.78522 78.8295 6.98825 79.0799 6.98825Z" fill="#FF6098"/>
<path d="M80.4524 4.7489H77.7079V5.11448H80.4524V4.7489Z" fill="#FF6098"/>
<path d="M57.9949 12.0387H54.2185V13.9049H57.9949V12.0387Z" fill="#FBE6E6"/>
<path d="M58.244 11.9952H53.97V13.2692H58.244V11.9952Z" fill="white"/>
<path d="M63.547 12.0387H59.7703V13.9049H63.547V12.0387Z" fill="#FBE6E6"/>
<path d="M63.7954 11.9952H59.5217V13.2692H63.7954V11.9952Z" fill="white"/>
<path d="M69.0991 12.0387H65.3226V13.9049H69.0991V12.0387Z" fill="#FBE6E6"/>
<path d="M69.3476 11.9952H65.0739V13.2692H69.3476V11.9952Z" fill="white"/>
<path d="M74.6512 12.0387H70.8748V13.9049H74.6512V12.0387Z" fill="#FBE6E6"/>
<path d="M74.8997 11.9952H70.626V13.2692H74.8997V11.9952Z" fill="white"/>
<path d="M80.2029 12.0387H76.4265V13.9049H80.2029V12.0387Z" fill="#FBE6E6"/>
<path d="M80.4517 11.9952H76.178V13.2692H80.4517V11.9952Z" fill="white"/>
<path d="M56.48 15.9763H54.2185V19.2847H56.48V15.9763Z" fill="#9578FF"/>
<path d="M56.48 15.9763H55.3494V19.2847H56.48V15.9763Z" fill="#BEACFF"/>
<path d="M56.48 15.9763H54.2185V16.2546H56.48V15.9763Z" fill="white"/>
<path d="M56.48 19.0061H54.2185V19.2844H56.48V19.0061Z" fill="white"/>
<path d="M55.3494 17.1764C55.7677 17.1764 56.1068 17.0339 56.1068 16.8581C56.1068 16.6824 55.7677 16.5399 55.3494 16.5399C54.931 16.5399 54.5919 16.6824 54.5919 16.8581C54.5919 17.0339 54.931 17.1764 55.3494 17.1764Z" fill="white"/>
<path d="M59.8699 15.9763H57.6084V19.2847H59.8699V15.9763Z" fill="#9578FF"/>
<path d="M59.8699 15.9763H58.7393V19.2847H59.8699V15.9763Z" fill="#BEACFF"/>
<path d="M59.8699 15.9763H57.6084V16.2546H59.8699V15.9763Z" fill="white"/>
<path d="M59.8699 19.0061H57.6084V19.2844H59.8699V19.0061Z" fill="white"/>
<path d="M58.7393 17.1764C59.1576 17.1764 59.4967 17.0339 59.4967 16.8581C59.4967 16.6824 59.1576 16.5399 58.7393 16.5399C58.3209 16.5399 57.9818 16.6824 57.9818 16.8581C57.9818 17.0339 58.3209 17.1764 58.7393 17.1764Z" fill="white"/>
<path d="M63.2602 15.9763H60.9984V19.2847H63.2602V15.9763Z" fill="#9578FF"/>
<path d="M63.2602 15.9763H62.1293V19.2847H63.2602V15.9763Z" fill="#BEACFF"/>
<path d="M63.2602 15.9763H60.9984V16.2546H63.2602V15.9763Z" fill="white"/>
<path d="M63.2602 19.0061H60.9984V19.2844H63.2602V19.0061Z" fill="white"/>
<path d="M62.1293 17.1764C62.5476 17.1764 62.8867 17.0339 62.8867 16.8581C62.8867 16.6824 62.5476 16.5399 62.1293 16.5399C61.7109 16.5399 61.3718 16.6824 61.3718 16.8581C61.3718 17.0339 61.7109 17.1764 62.1293 17.1764Z" fill="white"/>
<path d="M66.6504 15.9763H64.3885V19.2847H66.6504V15.9763Z" fill="#9578FF"/>
<path d="M66.6503 15.9763H65.5194V19.2847H66.6503V15.9763Z" fill="#BEACFF"/>
<path d="M66.6504 15.9763H64.3885V16.2546H66.6504V15.9763Z" fill="white"/>
<path d="M66.6504 19.0061H64.3885V19.2844H66.6504V19.0061Z" fill="white"/>
<path d="M65.5194 17.1764C65.9377 17.1764 66.2769 17.0339 66.2769 16.8581C66.2769 16.6824 65.9377 16.5399 65.5194 16.5399C65.1011 16.5399 64.762 16.6824 64.762 16.8581C64.762 17.0339 65.1011 17.1764 65.5194 17.1764Z" fill="white"/>
<path d="M70.0403 15.9763H67.7793V19.2847H70.0403V15.9763Z" fill="#9578FF"/>
<path d="M70.0406 15.9763H68.9099V19.2847H70.0406V15.9763Z" fill="#BEACFF"/>
<path d="M70.0403 15.9763H67.7793V16.2546H70.0403V15.9763Z" fill="white"/>
<path d="M70.0403 19.0061H67.7793V19.2844H70.0403V19.0061Z" fill="white"/>
<path d="M68.9093 17.1764C69.3276 17.1764 69.6667 17.0339 69.6667 16.8581C69.6667 16.6824 69.3276 16.5399 68.9093 16.5399C68.491 16.5399 68.1519 16.6824 68.1519 16.8581C68.1519 17.0339 68.491 17.1764 68.9093 17.1764Z" fill="white"/>
<path d="M73.4306 15.9763H71.1691V19.2847H73.4306V15.9763Z" fill="#9578FF"/>
<path d="M73.4306 15.9763H72.2997V19.2847H73.4306V15.9763Z" fill="#BEACFF"/>
<path d="M73.4306 15.9763H71.1691V16.2546H73.4306V15.9763Z" fill="white"/>
<path d="M73.4306 19.0061H71.1691V19.2844H73.4306V19.0061Z" fill="white"/>
<path d="M72.2997 17.1764C72.718 17.1764 73.0571 17.0339 73.0571 16.8581C73.0571 16.6824 72.718 16.5399 72.2997 16.5399C71.8814 16.5399 71.5422 16.6824 71.5422 16.8581C71.5422 17.0339 71.8814 17.1764 72.2997 17.1764Z" fill="white"/>
<path d="M76.8205 15.9763H74.559V19.2847H76.8205V15.9763Z" fill="#9578FF"/>
<path d="M76.8204 15.9763H75.6898V19.2847H76.8204V15.9763Z" fill="#BEACFF"/>
<path d="M76.8205 15.9763H74.559V16.2546H76.8205V15.9763Z" fill="white"/>
<path d="M76.8205 19.0061H74.559V19.2844H76.8205V19.0061Z" fill="white"/>
<path d="M75.6898 17.1764C76.1081 17.1764 76.4473 17.0339 76.4473 16.8581C76.4473 16.6824 76.1081 16.5399 75.6898 16.5399C75.2715 16.5399 74.9324 16.6824 74.9324 16.8581C74.9324 17.0339 75.2715 17.1764 75.6898 17.1764Z" fill="white"/>
<path d="M80.2106 15.9763H77.9491V19.2847H80.2106V15.9763Z" fill="#9578FF"/>
<path d="M80.2107 15.9763H79.0801V19.2847H80.2107V15.9763Z" fill="#BEACFF"/>
<path d="M80.2106 15.9763H77.9491V16.2546H80.2106V15.9763Z" fill="white"/>
<path d="M80.2106 19.0061H77.9491V19.2844H80.2106V19.0061Z" fill="white"/>
<path d="M79.0801 17.1764C79.4984 17.1764 79.8375 17.0339 79.8375 16.8581C79.8375 16.6824 79.4984 16.5399 79.0801 16.5399C78.6618 16.5399 78.3226 16.6824 78.3226 16.8581C78.3226 17.0339 78.6618 17.1764 79.0801 17.1764Z" fill="white"/>
<path d="M56.4808 21.3745H54.2192V24.6829H56.4808V21.3745Z" fill="#FF6098"/>
<path d="M56.48 21.3745H55.3494V24.6829H56.48V21.3745Z" fill="#FF7E88"/>
<path d="M56.5384 21.3745H54.1598V21.6528H56.5384V21.3745Z" fill="white"/>
<path d="M59.8707 21.3745H57.6091V24.6829H59.8707V21.3745Z" fill="#FF6098"/>
<path d="M59.8698 21.3745H58.7395V24.6829H59.8698V21.3745Z" fill="#FF7E88"/>
<path d="M59.9288 21.3745H57.5499V21.6528H59.9288V21.3745Z" fill="white"/>
<path d="M63.2611 21.3745H60.9995V24.6829H63.2611V21.3745Z" fill="#FF6098"/>
<path d="M63.26 21.3745H62.1294V24.6829H63.26V21.3745Z" fill="#FF7E88"/>
<path d="M63.3187 21.3745H60.9401V21.6528H63.3187V21.3745Z" fill="white"/>
<path d="M66.6508 21.3745H64.3893V24.6829H66.6508V21.3745Z" fill="#FF6098"/>
<path d="M66.65 21.3745H65.5194V24.6829H66.65V21.3745Z" fill="#FF7E88"/>
<path d="M66.7085 21.3745H64.3298V21.6528H66.7085V21.3745Z" fill="white"/>
<path d="M70.0412 21.3745H67.7797V24.6829H70.0412V21.3745Z" fill="#FF6098"/>
<path d="M70.0404 21.3745H68.9098V24.6829H70.0404V21.3745Z" fill="#FF7E88"/>
<path d="M70.0988 21.3745H67.7202V21.6528H70.0988V21.3745Z" fill="white"/>
<path d="M73.4311 21.3745H71.1696V24.6829H73.4311V21.3745Z" fill="#FF6098"/>
<path d="M73.4303 21.3745H72.2997V24.6829H73.4303V21.3745Z" fill="#FF7E88"/>
<path d="M73.489 21.3745H71.1104V21.6528H73.489V21.3745Z" fill="white"/>
<path d="M76.8213 21.3745H74.5601V24.6829H76.8213V21.3745Z" fill="#FF6098"/>
<path d="M76.8204 21.3745H75.6898V24.6829H76.8204V21.3745Z" fill="#FF7E88"/>
<path d="M76.8789 21.3745H74.5002V21.6528H76.8789V21.3745Z" fill="white"/>
<path d="M80.2114 21.3745H77.9498V24.6829H80.2114V21.3745Z" fill="#FF6098"/>
<path d="M80.2106 21.3745H79.08V24.6829H80.2106V21.3745Z" fill="#FF7E88"/>
<path d="M80.269 21.3745H77.8904V21.6528H80.269V21.3745Z" fill="white"/>
<path d="M66.9818 30.5921L67.3506 27.0384L65.2584 20.9166C65.2584 20.9166 64.6222 21.2711 64.4426 21.434C63.969 21.8586 63.3704 22.7764 63.3704 23.7432V30.5921H66.9818Z" fill="white"/>
<path d="M74.1869 18.1826L73.8076 17.9058L71.3452 18.3768L69.2442 17.9058L68.8649 18.1826C68.6596 18.3319 68.5385 18.5707 68.5385 18.8239V20.6249C68.5385 21.1102 68.6719 21.5856 68.9245 22L70.8526 25.1687H71.525V25.1568L71.5265 25.1696H72.199L74.1279 22.0008C74.3811 21.5859 74.5142 21.1102 74.5142 20.6246V18.8236C74.5134 18.5698 74.3922 18.3316 74.1869 18.1826Z" fill="white"/>
<path d="M68.0829 14.9368C68.0829 14.9368 67.5135 15.5424 67.2379 14.0987C66.9421 12.5552 66.9526 11.7178 67.4829 11.5414C67.8213 11.4284 67.9177 11.7166 67.9177 11.7166L68.0829 14.9368Z" fill="#FFCEAD"/>
<path d="M69.2443 17.1122V18.2045C69.2443 18.6019 69.423 18.9786 69.731 19.2295L70.6827 20.0056C71.1674 20.4013 71.8632 20.4027 72.3497 20.0097L73.3156 19.2297C73.6266 18.9786 73.8073 18.6002 73.8073 18.2007V17.0076L69.2443 17.1122Z" fill="#FFCEAD"/>
<path d="M69.2443 17.9143C69.8586 18.5949 70.6275 18.966 71.4807 18.966C72.3751 18.966 73.1798 18.5608 73.8076 17.8141V17.007L69.2443 17.1121V17.9143Z" fill="#FCC097"/>
<path d="M71.4807 18.4197C73.5641 18.4197 75.1619 16.2373 75.1619 12.6218C75.1619 8.11329 73.8389 7.06647 71.4807 7.06647C69.1208 7.06647 67.7986 8.11329 67.7986 12.6218C67.7986 16.2373 69.3967 18.4197 71.4807 18.4197Z" fill="#FED6B7"/>
<path d="M74.9301 14.9368C74.9301 14.9368 75.4992 15.5424 75.7757 14.0987C76.07 12.5552 76.0601 11.7178 75.5313 11.5414C75.1928 11.4284 75.0953 11.7166 75.0953 11.7166L74.9301 14.9368Z" fill="#FFCEAD"/>
<path d="M71.5259 7.06647V18.4171C73.5862 18.3847 75.1619 16.2104 75.1619 12.6218C75.1619 8.14307 73.8557 7.08048 71.5259 7.06647Z" fill="#FFDEBF"/>
<path d="M67.922 13.7366C66.3578 12.9847 65.2321 6.00067 70.8978 6.00067C72.441 6.00067 73.0805 6.70585 73.0805 6.70585C74.2756 5.62604 78.4758 8.18892 75.0334 13.2893C75.0334 13.2893 75.3736 10.9092 74.0946 9.9088C73.1853 9.19778 73.0367 8.69087 73.0367 8.69087C73.0367 8.69087 72.4214 9.77565 70.6236 10.232C68.836 10.6852 68.3615 11.8442 67.922 13.7366Z" fill="#BF9170"/>
<path d="M72.397 25.1699L71.9613 22.6417H71.5259H71.5146H71.0801L70.6438 25.1699L71.5259 25.708L72.397 25.1699Z" fill="#FF6098"/>
<path d="M71.526 22.9545L72.1929 22.5177C72.4002 22.3819 72.4852 22.1203 72.3979 21.8887L72.0898 21.0711C72.0121 20.8652 71.815 20.7289 71.5949 20.7289H71.526H71.5251H71.457C71.2369 20.7289 71.0398 20.8652 70.9621 21.0711L70.6538 21.8887C70.5664 22.1206 70.6517 22.3819 70.8587 22.5177L71.5251 22.9545V22.9548H71.526V22.9545Z" fill="#FF6098"/>
<path d="M79.6692 30.5921V23.7453C79.6692 22.7767 79.0723 21.8586 78.5981 21.4329C78.4188 21.272 77.7823 20.9158 77.7823 20.9158L75.6921 27.0367L76.0604 30.5921H79.6692Z" fill="white"/>
<path d="M76.4158 30.592C76.6325 26.4751 77.7821 20.9157 77.7821 20.9157L74.5035 18.698V20.4237C74.5035 20.9441 74.349 21.4527 74.0614 21.8861L71.526 25.708L68.9791 21.8861C68.6915 21.4527 68.5382 20.9441 68.5382 20.4237V18.698L65.2582 20.9157C65.2582 20.9157 66.4078 26.4751 66.625 30.592H76.4158Z" fill="#492A79"/>
<path d="M76.4157 30.592C76.6324 26.4751 77.782 20.9157 77.782 20.9157L74.5034 18.698V20.4237C74.5034 20.9441 74.3489 21.4527 74.0613 21.8861L71.5259 25.708V30.592H76.4157Z" fill="#4A398B"/>
<path d="M75.8174 24.8499H73.4913V25.9227H75.8174V24.8499Z" fill="white"/>
<path opacity="0.7" d="M85.127 86.6289V66.2458V65.2971H86.0819L82.4993 57.4815H79.6219V56.6396H80.2737V55.4459H75.8222V56.6396H76.4739V57.4815H68.5537H54.6075L51.0252 65.2971H51.9792V66.2458V86.6289H50.8051V87.6059H51.9792H53.7852H63.013H85.127H86.3023V86.6289H85.127Z" fill="#808080"/>
<path d="M84.5994 64.7695H51.4515V87.0783H84.5994V64.7695Z" fill="white"/>
<path d="M85.7747 86.1013H50.2775V87.0783H85.7747V86.1013Z" fill="#492A79"/>
<path d="M85.5543 64.7695H50.4979L54.0799 56.9538H81.9717L85.5543 64.7695Z" fill="#492A79"/>
<path d="M85.5543 64.7695L81.9717 56.9538H68.0261V64.7695H85.5543Z" fill="#4A398B"/>
<path d="M62.4854 68.2974H53.2576V87.0782H62.4854V68.2974Z" fill="#FF6098"/>
<path d="M82.6781 69.2198H64.2777V81.5463H82.6781V69.2198Z" fill="#A9F3FA"/>
<path d="M69.6946 81.5697V81.5665L68.7175 80.5927L67.9394 79.8145C67.9394 79.785 67.9361 79.7558 67.9326 79.7231H67.949C67.5323 79.4297 67.2622 78.9444 67.2622 78.3945C67.2622 77.4952 67.9878 76.7657 68.8904 76.7657C69.2843 76.7657 69.6458 76.9059 69.9261 77.1372L69.9556 77.1629L70.1215 77.3293L70.1478 77.3588L73.3819 80.5924L74.3622 81.5694H69.6946V81.5697Z" fill="#A0EAF1"/>
<path d="M61.5624 69.221H54.2346V81.5469H61.5624V69.221Z" fill="#A9F3FA"/>
<g opacity="0.5">
<path opacity="0.5" d="M58.8692 81.5469H56.4529L54.2346 79.3266V76.9161L58.8692 81.5469Z" fill="white"/>
</g>
<g opacity="0.5">
<path opacity="0.5" d="M61.5624 71.7804V75.4637L55.3159 69.2205H59.0024L61.5624 71.7804Z" fill="white"/>
</g>
<path d="M83.4913 81.5469H63.4624V82.524H83.4913V81.5469Z" fill="#492A79"/>
<path d="M83.4913 68.3521H63.4624L65.0903 66.6155H81.8628L83.4913 68.3521Z" fill="#EBFF30"/>
<path d="M79.0943 56.112H75.9463V59.2601H79.0943V56.112Z" fill="white"/>
<g opacity="0.5">
<path opacity="0.5" d="M82.6769 71.7804V75.4637L76.4302 69.2205H80.1167L82.6769 71.7804Z" fill="white"/>
</g>
<path d="M79.7461 54.9186H75.2946V56.1123H79.7461V54.9186Z" fill="#F2F2F2"/>
<path d="M82.6769 75.2213H64.2765V75.5466H82.6769V75.2213Z" fill="#FF6098"/>
<path d="M73.6398 69.221H73.3134V81.5469H73.6398V69.221Z" fill="#FF6098"/>
<path d="M78.362 69.221H78.0355V81.5469H78.362V69.221Z" fill="#FF6098"/>
<path d="M69.0527 69.221H68.7274V81.5469H69.0527V69.221Z" fill="#FF6098"/>
<path d="M61.5624 75.2213H54.1266V75.5466H61.5624V75.2213Z" fill="#FF6098"/>
<path d="M58.0618 69.221H57.736V81.5469H58.0618V69.221Z" fill="#FF6098"/>
<path d="M83.508 68.3521H63.4785V70.0888H83.508V68.3521Z" fill="#FF6098"/>
<path d="M58.577 82.0737H54.2346V83.0507H58.577V82.0737Z" fill="white"/>
<path d="M82.6781 80.5795V81.5466H78.9852L78.0271 80.5921L77.2496 79.8133C77.2496 79.7844 77.2463 79.7552 77.2423 79.7225H77.2589C76.8422 79.4291 76.5715 78.9443 76.5715 78.3936C76.5715 77.4954 77.2977 76.7654 78.2003 76.7654C78.5939 76.7654 78.956 76.9056 79.236 77.1363L79.2644 77.1626L79.4314 77.3284L79.4577 77.3585L82.6781 80.5795Z" fill="#A0EAF1"/>
<g opacity="0.5">
<path opacity="0.5" d="M68.9105 81.5469H66.4945L64.2765 79.3266V76.9161L68.9105 81.5469Z" fill="white"/>
</g>
<path d="M70.5189 78.3852C70.5189 78.933 70.2482 79.4177 69.8315 79.7144C69.5643 79.9033 69.2417 80.0139 68.8904 80.0139C68.542 80.0139 68.213 79.9033 67.949 79.7144C67.5323 79.4212 67.2622 78.9362 67.2622 78.3852C67.2622 77.487 67.9884 76.757 68.8904 76.757C69.2843 76.757 69.6458 76.8971 69.9261 77.1284L69.955 77.1541C70.0143 77.2066 70.0695 77.2621 70.1215 77.3205L70.1478 77.35C70.3784 77.6298 70.5189 77.9918 70.5189 78.3852Z" fill="#006B00"/>
<path d="M69.0516 77.7299H68.7257V80.2846H69.0516V77.7299Z" fill="#3D2323"/>
<path d="M68.994 79.4772L68.1425 78.6257L67.9124 78.8557L68.7639 79.7072L68.994 79.4772Z" fill="#3D2323"/>
<path d="M69.7707 78.2649L69.5404 78.0352L68.772 78.8054L69.0022 79.0351L69.7707 78.2649Z" fill="#3D2323"/>
<path d="M69.8441 79.7144C69.8152 80.082 69.7921 80.3591 69.7696 80.6362C69.7465 80.9133 69.7273 81.1861 69.6952 81.5575V81.5607H68.0822C68.0503 81.1899 68.0308 80.9133 68.0077 80.6362C67.9881 80.3822 67.9654 80.1314 67.9394 79.8055C67.9394 79.776 67.9361 79.7474 67.9332 79.7141H69.8441V79.7144Z" fill="#EAA42D"/>
<path d="M79.8269 78.3852C79.8269 78.933 79.5574 79.4177 79.1407 79.7144C78.873 79.9033 78.5509 80.0139 78.1993 80.0139C77.8498 80.0139 77.5216 79.9033 77.2579 79.7144C76.8404 79.4212 76.5706 78.9362 76.5706 78.3852C76.5706 77.487 77.2968 76.757 78.199 76.757C78.5927 76.757 78.9547 76.8971 79.2339 77.1284L79.2634 77.1541C79.3221 77.2066 79.3778 77.2621 79.4301 77.3205L79.4564 77.35C79.6874 77.6298 79.8269 77.9918 79.8269 78.3852Z" fill="#006B00"/>
<path d="M78.3602 77.7299H78.0343V80.2846H78.3602V77.7299Z" fill="#3D2323"/>
<path d="M78.3049 79.4774L77.4539 78.6259L77.2238 78.8558L78.0748 79.7073L78.3049 79.4774Z" fill="#3D2323"/>
<path d="M79.0722 78.273L78.8419 78.0432L78.0735 78.8135L78.3038 79.0433L79.0722 78.273Z" fill="#3D2323"/>
<path d="M79.153 79.7144C79.1235 80.082 79.1004 80.3591 79.0785 80.6362C79.0555 80.9133 79.0356 81.1861 79.0029 81.5575V81.5607H77.3911C77.3586 81.1899 77.3385 80.9133 77.3166 80.6362C77.2967 80.3822 77.2737 80.1314 77.2474 79.8055C77.2474 79.776 77.2442 79.7474 77.241 79.7141H79.153V79.7144Z" fill="#EAA42D"/>
<path d="M64.8622 68.3521H63.4624V70.0888H64.8622V68.3521Z" fill="#FF3C81"/>
<path d="M67.5233 68.3521H66.1234V70.0888H67.5233V68.3521Z" fill="#FF3C81"/>
<path d="M70.1851 68.3521H68.7847V70.0888H70.1851V68.3521Z" fill="#FF3C81"/>
<path d="M72.8453 68.3521H71.4454V70.0888H72.8453V68.3521Z" fill="#FF3C81"/>
<path d="M75.5077 68.3521H74.1067V70.0888H75.5077V68.3521Z" fill="#FF3C81"/>
<path d="M78.1675 68.3521H76.7688V70.0888H78.1675V68.3521Z" fill="#FF3C81"/>
<path d="M80.8302 68.3521H79.4292V70.0888H80.8302V68.3521Z" fill="#FF3C81"/>
<path d="M83.4913 68.3521H82.0914V70.0888H83.4913V68.3521Z" fill="#FF3C81"/>
<path d="M83.4788 68.352C82.8626 68.352 82.2711 68.352 81.699 68.352C81.127 68.352 80.5751 68.352 80.0399 68.352C79.5038 68.352 78.9852 68.352 78.4786 68.352C77.9716 68.352 77.4785 68.352 76.9937 68.352C76.5099 68.352 76.0345 68.352 75.5644 68.352C75.0954 68.352 74.6306 68.352 74.1678 68.352C73.7049 68.352 73.2442 68.352 72.7816 68.352C72.3188 68.352 71.8551 68.352 71.385 68.352C70.9149 68.352 70.4395 68.352 69.9554 68.352C69.4709 68.352 68.9769 68.352 68.4705 68.352C67.9642 68.352 67.4465 68.352 66.9107 68.352C66.3749 68.352 65.823 68.352 65.251 68.352C64.6792 68.352 64.0873 68.352 63.4718 68.352C63.5883 68.0045 63.6753 67.7444 63.7629 67.4836C63.8505 67.2228 63.9375 66.9627 64.0546 66.6152C64.6827 66.6152 65.2845 66.6152 65.8642 66.6152C66.4444 66.6152 67.0032 66.6152 67.5443 66.6152C68.0848 66.6152 68.6084 66.6152 69.1185 66.6152C69.6286 66.6152 70.1259 66.6152 70.6138 66.6152C71.1026 66.6152 71.5812 66.6152 72.0578 66.6152C72.5331 66.6152 73.0033 66.6152 73.4745 66.6152C73.9458 66.6152 74.4168 66.6152 74.8922 66.6152C75.3676 66.6152 75.8471 66.6152 76.335 66.6152C76.8241 66.6152 77.3214 66.6152 77.8324 66.6152C78.3425 66.6152 78.866 66.6152 79.4065 66.6152C79.9479 66.6152 80.5053 66.6152 81.0855 66.6152C81.6657 66.6152 82.2681 66.6152 82.8956 66.6152C83.013 66.9624 83.1012 67.2228 83.1885 67.4836C83.2752 67.7444 83.3623 68.0048 83.4788 68.352Z" fill="#FF959D"/>
<path d="M64.8702 68.352C64.3107 68.352 64.0307 68.352 63.4712 68.352C63.5877 68.0045 63.6747 67.7444 63.7623 67.4836C63.8499 67.2228 63.9369 66.9627 64.054 66.6152C64.5808 66.6152 64.8442 66.6152 65.3709 66.6152C65.2708 66.9624 65.1957 67.2228 65.1207 67.4836C65.0459 67.7444 64.9703 68.0048 64.8702 68.352Z" fill="#FF646E"/>
<path d="M67.5283 68.352C66.9691 68.352 66.6888 68.352 66.129 68.352C66.2146 68.0045 66.2797 67.7438 66.3442 67.483C66.4082 67.2228 66.4724 66.9627 66.558 66.6152C67.0847 66.6152 67.3481 66.6152 67.8749 66.6152C67.8057 66.9624 67.7531 67.2228 67.7012 67.4836C67.6489 67.7444 67.5975 68.0048 67.5283 68.352Z" fill="#FF646E"/>
<path d="M70.1863 68.352C69.6266 68.352 69.3463 68.352 68.7865 68.352C68.8417 68.0045 68.8826 67.7444 68.9234 67.4836C68.9643 67.2228 69.0058 66.9627 69.0604 66.6152C69.5877 66.6152 69.8511 66.6152 70.3785 66.6152C70.3396 66.9624 70.3113 67.2228 70.2818 67.4836C70.2535 67.7444 70.2252 68.0048 70.1863 68.352Z" fill="#FF646E"/>
<path d="M72.8444 68.352C72.2852 68.352 72.0049 68.352 71.4457 68.352C71.4687 68.0045 71.4866 67.7444 71.5044 67.4836C71.5222 67.2228 71.54 66.9627 71.5642 66.6152C72.091 66.6152 72.3535 66.6152 72.8803 66.6152C72.873 66.9624 72.8677 67.2228 72.8625 67.4842C72.8558 67.7444 72.8517 68.0048 72.8444 68.352Z" fill="#FF646E"/>
<path d="M75.5025 68.352C74.9433 68.352 74.6641 68.352 74.1047 68.352C74.0974 68.0045 74.0909 67.7444 74.0857 67.4842C74.0804 67.2228 74.0752 66.9627 74.0679 66.6152C74.5935 66.6152 74.858 66.6152 75.3848 66.6152C75.409 66.9624 75.4268 67.2228 75.4435 67.4836C75.4616 67.7444 75.4794 68.0048 75.5025 68.352Z" fill="#FF646E"/>
<path d="M78.1614 68.352C77.6022 68.352 77.3231 68.352 76.7636 68.352C76.7248 68.0045 76.6953 67.7444 76.667 67.4836C76.6386 67.2228 76.6091 66.9627 76.5703 66.6152C77.0971 66.6152 77.3616 66.6152 77.8884 66.6152C77.943 66.9624 77.9839 67.2228 78.0239 67.4836C78.0651 67.7444 78.1071 68.0048 78.1614 68.352Z" fill="#FF646E"/>
<path d="M80.8206 68.352C80.2603 68.352 79.9811 68.352 79.4219 68.352C79.3527 68.0045 79.3002 67.7444 79.2488 67.4842C79.1974 67.2228 79.144 66.9627 79.0745 66.6152C79.6012 66.6152 79.8658 66.6152 80.3926 66.6152C80.4775 66.9624 80.5426 67.2228 80.6066 67.4836C80.6717 67.7444 80.7345 68.0048 80.8206 68.352Z" fill="#FF646E"/>
<path d="M83.4787 68.352C82.9195 68.352 82.6404 68.352 82.0809 68.352C81.9802 68.0045 81.9037 67.7444 81.8292 67.4836C81.7536 67.2228 81.6791 66.9627 81.5784 66.6152C82.1051 66.6152 82.3685 66.6152 82.8953 66.6152C83.0127 66.9624 83.1009 67.2228 83.1882 67.4836C83.2752 67.7444 83.3622 68.0048 83.4787 68.352Z" fill="#FF646E"/>
<path d="M84.5994 64.7695H51.4515V65.7182H84.5994V64.7695Z" fill="#FF6098"/>
<path opacity="0.7" d="M119.634 60.9904H105.111V85.5091H119.634V60.9904Z" fill="#808080"/>
<path d="M119.318 60.6754H104.796V85.194H119.318V60.6754Z" fill="white"/>
<path d="M108.168 62.0383H108.576L108.832 63.0887L109.087 62.0383H109.494L109.638 63.576H109.348L109.247 62.5499L108.999 63.576H108.671L108.413 62.5499L108.323 63.576H108.032L108.168 62.0383Z" fill="#9B8E8E"/>
<path d="M109.991 62.0381L110.291 62.7752L110.619 62.0381H110.939L110.433 63.099V63.5758H110.139V63.099L109.671 62.0381H109.991Z" fill="#9B8E8E"/>
<path d="M111.02 62.4227C111.02 62.1178 111.2 62.0291 111.435 62.0256C111.656 62.0212 111.908 62.0504 112.03 62.0866V62.3179C111.895 62.3059 111.592 62.2966 111.516 62.2966C111.388 62.2936 111.313 62.3027 111.313 62.4458V62.5211C111.313 62.6429 111.36 62.6691 111.479 62.6691H111.722C112.023 62.6691 112.085 62.9065 112.085 63.0765V63.1787C112.085 63.5279 111.868 63.5927 111.66 63.5927C111.398 63.5927 111.226 63.5767 111.067 63.53V63.2987C111.151 63.3072 111.407 63.3221 111.603 63.3221C111.691 63.3221 111.792 63.3075 111.792 63.1898V63.1068C111.792 63.0192 111.765 62.9632 111.653 62.9632H111.417C111.046 62.9632 111.02 62.6896 111.02 62.5559V62.4227H111.02Z" fill="#9B8E8E"/>
<path d="M112.284 62.0381H112.578V62.6966H113.105V62.0381H113.399V63.5758H113.105V62.9676H112.578V63.5758H112.284V62.0381Z" fill="#9B8E8E"/>
<path d="M114.216 62.0273C114.579 62.0273 114.833 62.0968 114.833 62.8172C114.833 63.4958 114.594 63.584 114.216 63.584C113.838 63.584 113.598 63.5165 113.598 62.8172C113.598 62.0968 113.863 62.0273 114.216 62.0273ZM114.216 63.313C114.463 63.313 114.538 63.2321 114.538 62.8175C114.538 62.3386 114.449 62.2986 114.216 62.2986C113.989 62.2986 113.891 62.3281 113.891 62.8175C113.892 63.2371 113.954 63.313 114.216 63.313Z" fill="#9B8E8E"/>
<path d="M115.012 62.0381H115.673C115.865 62.0381 116.099 62.0983 116.099 62.5124C116.099 62.9816 115.849 63.0158 115.673 63.0076C115.589 63.0041 115.316 62.972 115.306 62.9655V63.5758H115.011V62.0381H115.012ZM115.65 62.7483C115.743 62.7483 115.803 62.7004 115.803 62.5156C115.802 62.3342 115.724 62.2998 115.65 62.2998H115.306V62.7483H115.65Z" fill="#9B8E8E"/>
<path d="M117.774 64.1338H106.341V65.1853H117.774V64.1338Z" fill="#B4A5A5"/>
<path d="M117.774 65.7182H106.341V66.7694H117.774V65.7182Z" fill="#B4A5A5"/>
<path d="M118.398 67.5175H105.716C105.68 67.5175 105.65 67.4883 105.65 67.4518C105.65 67.4156 105.68 67.3861 105.716 67.3861H118.398C118.435 67.3861 118.464 67.4156 118.464 67.4518C118.464 67.4886 118.435 67.5175 118.398 67.5175Z" fill="#9B8E8E"/>
<path d="M111.772 68.2405H105.716V69.3577H111.772V68.2405Z" fill="#B4A5A5"/>
<path d="M111.772 70.0804H105.716V71.1975H111.772V70.0804Z" fill="#B4A5A5"/>
<path d="M111.772 71.9203H105.716V73.0375H111.772V71.9203Z" fill="#B4A5A5"/>
<path d="M111.772 73.7601H105.716V74.8773H111.772V73.7601Z" fill="#B4A5A5"/>
<path d="M111.772 75.6001H105.716V76.7173H111.772V75.6001Z" fill="#B4A5A5"/>
<path d="M118.398 68.2405H116.153V69.3577H118.398V68.2405Z" fill="#B4A5A5"/>
<path d="M118.398 70.0804H116.153V71.1975H118.398V70.0804Z" fill="#B4A5A5"/>
<path d="M118.398 71.9203H116.153V73.0375H118.398V71.9203Z" fill="#B4A5A5"/>
<path d="M118.398 73.7601H116.153V74.8773H118.398V73.7601Z" fill="#B4A5A5"/>
<path d="M118.398 75.6001H116.153V76.7173H118.398V75.6001Z" fill="#B4A5A5"/>
<path d="M118.398 77.5716H105.716C105.68 77.5716 105.65 77.5421 105.65 77.5059C105.65 77.4697 105.68 77.4402 105.716 77.4402H118.398C118.435 77.4402 118.464 77.4697 118.464 77.5059C118.464 77.5421 118.435 77.5716 118.398 77.5716Z" fill="#9B8E8E"/>
<path d="M111.772 78.2617H105.716V79.5966H111.772V78.2617Z" fill="#B4A5A5"/>
<path d="M118.398 78.2617H116.153V79.5966H118.398V78.2617Z" fill="#B4A5A5"/>
<path d="M118.398 82.4016H105.716V83.8143H118.398V82.4016Z" fill="#9B8E8E"/>
<path opacity="0.7" d="M130.153 54.5918V53.599C130.153 52.8302 129.53 52.2068 128.761 52.2068H118.458C117.689 52.2068 117.066 52.8302 117.066 53.599V54.5918C117.097 54.5898 117.127 54.5825 117.159 54.5825H117.159C116.39 54.5825 115.767 55.2059 115.767 55.9748V75.0572C115.767 75.8264 116.39 76.4495 117.159 76.4495H118.624V78.259C118.624 79.0278 119.247 79.6513 120.017 79.6513H127.203C127.972 79.6513 128.595 79.0281 128.595 78.259V76.4495H130.061C130.83 76.4495 131.453 75.8261 131.453 75.0572V55.9748C131.453 55.2375 130.878 54.64 130.153 54.5918Z" fill="#808080"/>
<path d="M131.138 74.7428C131.138 75.5119 130.515 76.1351 129.746 76.1351H116.844C116.075 76.1351 115.452 75.5116 115.452 74.7428V55.6603C115.452 54.8912 116.075 54.2681 116.844 54.2681H129.746C130.515 54.2681 131.138 54.8915 131.138 55.6603V74.7428Z" fill="#494949"/>
<path d="M116.844 54.2677H129.745C129.777 54.2677 129.806 54.275 129.838 54.2771V53.2843C129.838 52.5154 129.214 51.892 128.446 51.892H118.143C117.374 51.892 116.751 52.5154 116.751 53.2843V54.2771C116.782 54.275 116.812 54.2677 116.844 54.2677Z" fill="#535353"/>
<path d="M130.395 55.3899H116.194V61.4396H130.395V55.3899Z" fill="#535353"/>
<path d="M127.874 56.1027H116.968V60.7271H127.874V56.1027Z" fill="#DFD9FF"/>
<path d="M129.839 56.1027H128.431V56.8986H129.839V56.1027Z" fill="#A19494"/>
<path d="M129.839 57.3787H128.431V58.1747H129.839V57.3787Z" fill="#A19494"/>
<path d="M129.839 58.6553H128.431V59.451H129.839V58.6553Z" fill="#A19494"/>
<path d="M129.839 59.9313H128.431V60.727H129.839V59.9313Z" fill="#A19494"/>
<path d="M129.91 62.8853H127V65.0136H129.91V62.8853Z" fill="#FFC330"/>
<path d="M129.91 65.5211H127V67.6495H129.91V65.5211Z" fill="#FF698C"/>
<path d="M129.91 68.1567H127V72.9213H129.91V68.1567Z" fill="#FBE6E6"/>
<path d="M119.66 62.8853H116.75V65.0136H119.66V62.8853Z" fill="#A19494"/>
<path d="M123.076 62.8853H120.166V65.0136H123.076V62.8853Z" fill="#A19494"/>
<path d="M126.493 62.8853H123.583V65.0136H126.493V62.8853Z" fill="#A19494"/>
<path d="M119.66 65.5211H116.75V67.6495H119.66V65.5211Z" fill="#A19494"/>
<path d="M123.076 65.5211H120.166V67.6495H123.076V65.5211Z" fill="#A19494"/>
<path d="M126.493 65.5211H123.583V67.6495H126.493V65.5211Z" fill="#A19494"/>
<path d="M119.66 68.1567H116.75V70.2851H119.66V68.1567Z" fill="#A19494"/>
<path d="M123.076 68.1567H120.166V70.2851H123.076V68.1567Z" fill="#A19494"/>
<path d="M126.493 68.1567H123.583V70.2857H126.493V68.1567Z" fill="#A19494"/>
<path d="M119.66 70.7926H116.75V72.921H119.66V70.7926Z" fill="#A19494"/>
<path d="M123.076 70.7926H120.166V72.921H123.076V70.7926Z" fill="#A19494"/>
<path d="M126.493 70.7926H123.583V72.9213H126.493V70.7926Z" fill="#A19494"/>
<path d="M128.506 74.7948H118.084V75.3169H128.506V74.7948Z" fill="#3B3636"/>
<path d="M118.31 75.16V77.9448C118.31 78.7137 118.933 79.3371 119.702 79.3371H126.888C127.657 79.3371 128.281 78.7137 128.281 77.9448V75.16H118.31Z" fill="#FF6489"/>
<path d="M124.817 75.16H123.586V77.8231H124.817V75.16Z" fill="#FBE6E6"/>
<path d="M127.132 75.16H125.901V77.8231H127.132V75.16Z" fill="#FBE6E6"/>
<path d="M120.936 78.1533C121.666 78.1533 122.259 77.5613 122.259 76.8309C122.259 76.1005 121.666 75.5084 120.936 75.5084C120.206 75.5084 119.614 76.1005 119.614 76.8309C119.614 77.5613 120.206 78.1533 120.936 78.1533Z" fill="#4A398B"/>
<path d="M119.655 75.16C119.796 75.7385 120.314 76.1698 120.936 76.1698C121.557 76.1698 122.076 75.7388 122.217 75.16H119.655Z" fill="#A19494"/>
<path opacity="0.5" d="M127.874 59.5576V56.1027H124.419L127.874 59.5576Z" fill="white"/>
<path opacity="0.5" d="M116.968 57.8521V60.7271H119.843L116.968 57.8521Z" fill="white"/>
</svg>
