<svg width="82" height="132" viewBox="0 0 82 132" fill="none" xmlns="http://www.w3.org/2000/svg">
<path d="M76.7621 42.877L74.5754 50.8221L76.2976 50.8038L76.3289 53.3745C76.3323 53.6607 76.5832 53.8904 76.8901 53.8904C76.8922 53.8904 76.8946 53.8904 76.8966 53.8904C77.2067 53.8872 77.4551 53.6508 77.4517 53.3626L77.42 50.7923L79.1422 50.7741L76.7621 42.877Z" fill="white"/>
<path d="M56.7853 59.6564L58.7702 61.4468C58.8793 61.5451 59.0204 61.594 59.1611 61.594C59.3073 61.594 59.4539 61.5409 59.564 61.4353C59.7797 61.2284 59.7746 60.8979 59.5519 60.6973L57.5674 58.9072L58.7664 57.7582L51.0603 53.7656L55.5862 60.8061L56.7853 59.6564Z" fill="white"/>
<path d="M52.5589 77.3159C52.5665 77.3162 52.574 77.3162 52.5816 77.3162C52.8813 77.3162 53.13 77.0961 53.1424 76.8153C53.1548 76.5273 52.9136 76.2845 52.604 76.2727L49.8407 76.1697L49.9099 74.5698L41.304 76.3735L49.7268 78.8127L49.796 77.2129L52.5589 77.3159Z" fill="white"/>
<path d="M59.3484 93.1174L57.3067 94.8514L56.1451 93.6695L51.3938 100.58L59.2256 96.8045L58.064 95.6223L60.1057 93.8883C60.3349 93.6938 60.3507 93.3637 60.1415 93.151C59.9323 92.9379 59.5776 92.9232 59.3484 93.1174Z" fill="white"/>
<path opacity="0.7" d="M30.7203 87.671L26.5422 85.2965L25.5833 83.3135L25.0104 82.883C25.0049 82.8487 24.9994 82.8123 24.9942 82.7768C24.9846 82.7157 24.9753 82.654 24.9667 82.5897C24.9543 82.4995 24.9426 82.4061 24.9316 82.3095C25.0386 82.235 25.1442 82.1566 25.2468 82.0728C25.3772 82.3501 26.4004 84.3203 29.1582 84.3203C34.2907 84.3203 33.7491 79.2857 33.7491 79.2857C33.7491 79.2857 33.4395 80.2206 32.3825 80.2206C31.3248 80.2206 30.7316 79.2857 30.1126 71.8056C29.494 64.3252 23.1486 64.5644 22.1687 65.8115V66.2682C22.1642 66.2682 22.1601 66.2679 22.1556 66.2679V66.2669C22.1515 66.2669 22.1477 66.2669 22.1436 66.2669V65.8115C21.6691 65.2079 19.9381 64.8436 18.2081 65.4728V63.943C18.2081 62.8638 16.9023 62.3505 15.4762 61.7412C15.4779 61.7159 15.4837 61.6913 15.4848 61.6657L15.2821 61.6577C14.9755 61.5253 14.6662 61.3878 14.3648 61.2374C14.3648 61.2374 14.3015 61.3948 14.1659 61.6309L10.0058 59.019V57.9175L9.79554 57.873C9.73326 57.859 8.25823 57.5209 8.25823 56.1926C8.25823 55.3914 9.04478 54.8947 9.77386 54.8947C10.1578 54.8947 10.5047 55.0316 10.751 55.2814C11.0521 55.5862 11.2107 56.0602 11.2107 56.6522H11.753C11.753 55.9316 11.5451 55.3399 11.1501 54.9408C10.8002 54.5857 10.3116 54.3906 9.77386 54.3906C8.78466 54.3906 7.71597 55.0796 7.71597 56.1923C7.71597 57.4454 8.76229 58.0899 9.46351 58.308V59.0187L5.30368 61.6302C5.16846 61.3945 5.10481 61.2371 5.10481 61.2371C4.80375 61.3875 4.49408 61.525 4.18752 61.6574L3.9852 61.6654C3.98623 61.691 3.99208 61.7153 3.9938 61.7409C3.2771 62.047 2.59343 62.33 2.08799 62.6713C1.82478 62.8491 1.60767 63.042 1.4635 63.2643C1.33344 63.4648 1.2605 63.6881 1.2605 63.9427V65.8918L1.26084 65.8921V65.893C1.26084 65.893 4.84538 67.2741 4.84538 70.8429C4.84538 70.9814 4.83781 71.1202 4.8299 71.259C4.82887 71.2737 4.82818 71.2887 4.82749 71.3035C4.82405 71.3553 4.82267 71.4071 4.81786 71.4589C4.80925 71.5657 4.79687 71.6729 4.78413 71.7803C4.77622 71.8466 4.77003 71.9128 4.76074 71.9793C4.74182 72.1146 4.71876 72.2502 4.69399 72.3861C4.68676 72.4271 4.68057 72.468 4.67266 72.5093C4.61795 72.7939 4.55051 73.0808 4.47654 73.3696C4.4411 73.5081 4.40462 73.6469 4.36574 73.7867C4.33409 73.9009 4.30244 74.0151 4.26872 74.1299C4.22949 74.2633 4.18855 74.3982 4.1476 74.5329C3.86478 75.4595 3.54135 76.4193 3.25852 77.43C3.24682 77.4719 3.23512 77.5138 3.22343 77.556C3.06687 78.1253 2.92649 78.7113 2.81467 79.3167C2.80056 79.3922 2.78714 79.468 2.77441 79.5441C2.72624 79.8259 2.68358 80.1106 2.65055 80.4013C2.64848 80.4202 2.6447 80.4381 2.64263 80.457C2.18915 84.5986 1.89944 86.8317 1.89944 86.8317H1.90013V86.8324H9.73395V86.8317H15.0939L13.6171 87.6713C13.1509 87.9361 12.8172 88.3609 12.6885 88.8537L11.6263 92.9036H22.1687H32.7107L31.6489 88.8537C31.5195 88.3602 31.1861 87.9355 30.7203 87.671ZM9.73464 59.8612L13.6729 62.3342C12.9968 63.1466 11.7684 64.1125 9.73464 64.1125C7.70117 64.1125 6.47284 63.1463 5.79674 62.3339L9.73464 59.8612ZM17.211 83.8716C18.5828 83.2073 19.0817 82.0379 19.0817 82.0379L19.1464 82.0325C19.2496 82.1189 19.3549 82.2017 19.4626 82.2788H19.4096C19.3975 82.3872 19.3845 82.4905 19.3707 82.5909C19.359 82.6738 19.347 82.755 19.3346 82.8334C19.3322 82.8497 19.3298 82.8667 19.327 82.8826L18.7538 83.3131L17.7949 85.2962L17.4064 85.5172C17.3527 85.0761 17.287 84.526 17.211 83.8716Z" fill="#808080"/>
<path d="M9.11936 59.1211H9.66162V57.5977L9.45139 57.5532C9.38912 57.5391 7.91408 57.2011 7.91408 55.8727C7.91408 55.0715 8.70063 54.5751 9.42972 54.5751C9.8137 54.5751 10.1605 54.712 10.4069 54.9618C10.7079 55.2666 10.8666 55.7406 10.8666 56.3327H11.4088C11.4088 55.6121 11.201 55.0203 10.806 54.6212C10.4561 54.2662 9.9675 54.071 9.42972 54.071C8.44051 54.071 7.37183 54.76 7.37183 55.8727C7.37183 57.1259 8.41815 57.7704 9.11936 57.9885V59.1211Z" fill="white"/>
<path d="M1.55151 63.4517L9.39052 58.5295L17.2292 63.4517V64.824H1.55151V63.4517ZM16.326 63.8982L9.39087 59.5423L2.45505 63.8982V63.9846H16.326V63.8982Z" fill="#F9F35C"/>
<path d="M4.50271 70.5212V70.6511C4.48722 71.3637 4.37196 72.0798 4.19717 72.81C3.66455 75.0213 2.60446 77.369 2.29962 80.1375C1.84613 84.2791 1.55642 86.5122 1.55642 86.5122H17.2254C17.2254 86.5122 16.935 84.2791 16.4822 80.1375C16.1771 77.369 15.1166 75.0217 14.585 72.81C14.4102 72.0798 14.2953 71.3637 14.2792 70.6511V70.5212C14.2792 66.9518 17.8644 65.5723 17.8644 65.5723V63.6232C17.8644 62.2649 15.7962 61.8034 14.0211 60.9177C14.0211 60.9177 12.8977 63.7931 9.39093 63.7931C5.88484 63.7931 4.76145 60.9177 4.76145 60.9177C2.98673 61.8034 0.91748 62.2646 0.91748 63.6232V65.5723C0.917136 65.5723 4.50271 66.9518 4.50271 70.5212Z" fill="#FFC330"/>
<path d="M9.39056 86.5127H1.55711C1.55711 86.5127 1.84613 84.2802 2.3003 80.1361C2.70974 76.3962 4.50201 73.4262 4.50201 70.5237C4.50201 66.9549 0.91748 65.5739 0.91748 65.5739V63.6225C0.91748 62.2645 2.98535 61.8052 4.76075 60.918C4.76075 60.918 5.88345 63.7949 9.39022 63.7949V86.5127H9.39056Z" fill="#FFCE30"/>
<path d="M9.39069 65.2959C12.5142 65.2959 15.04 63.561 15.1408 61.3457L14.752 61.3303C14.6595 63.3515 12.305 64.9344 9.39069 64.9344C6.4764 64.9344 4.12193 63.3515 4.03006 61.3303L3.6416 61.3457C3.74173 63.561 6.2679 65.2959 9.39069 65.2959Z" fill="white"/>
<path d="M4.19922 72.8103H14.5871C14.5389 72.6193 14.499 72.427 14.4636 72.2353C14.3961 71.8958 14.3445 71.5624 14.317 71.2271C14.2977 71.0351 14.2853 70.8434 14.2809 70.6511H4.5051C4.50131 70.8434 4.48927 71.0351 4.46897 71.2271C4.43732 71.5627 4.39018 71.8958 4.3224 72.2353C4.28661 72.427 4.24326 72.619 4.19922 72.8103Z" fill="#FEF53D"/>
<path d="M4.32202 72.2356H14.4632C14.3958 71.8961 14.3441 71.5626 14.3166 71.2273H4.46894C4.43729 71.5626 4.39015 71.8961 4.32202 72.2356Z" fill="#FBFF4A"/>
<path d="M21.8247 65.4912C22.8046 64.2441 29.1497 64.0049 29.7687 71.4848C30.3877 78.9651 30.9808 79.8996 32.0385 79.8996C33.0955 79.8996 33.4052 78.9648 33.4052 78.9648C33.4052 78.9648 33.9468 83.9993 28.8142 83.9993C25.8483 83.9993 24.887 81.7173 24.887 81.7173L21.8247 81.4576V65.4912Z" fill="#423C3C"/>
<path d="M12.3444 88.5331C12.4731 88.0402 12.8068 87.6155 13.273 87.3506L18.1279 84.5908L21.8246 91.0722L25.5213 84.5908L30.3765 87.3506C30.8424 87.6155 31.1758 88.0402 31.3052 88.5331L32.367 92.5833H21.8246H11.2822L12.3444 88.5331Z" fill="#492A79"/>
<path d="M21.8245 86.876L24.1563 87.1469L21.8245 91.0725L19.4924 87.1469L21.8245 86.876Z" fill="white"/>
<path d="M21.8245 87.8521L18.3511 84.521C18.3511 84.521 18.8514 83.8966 19.0654 81.9583H21.8245H24.5836C24.798 83.8966 25.2975 84.521 25.2975 84.521L21.8245 87.8521Z" fill="#FFCEAD"/>
<path d="M19.0485 82.5132L18.4096 82.9933L16.7866 86.3491L21.8245 87.8521L19.0485 82.5132Z" fill="#FBE6E6"/>
<path d="M19.0657 81.9583H21.8248H24.5839C24.6059 82.158 24.631 82.3407 24.6586 82.5132C23.829 83.129 22.8667 83.458 21.8248 83.458C20.7826 83.458 19.8203 83.1287 18.9907 82.5132C19.0186 82.3401 19.0444 82.158 19.0657 81.9583Z" fill="#FCC097"/>
<path d="M21.7999 65.4912C20.8193 64.2441 14.4749 64.0049 13.8556 71.4848C13.2366 78.9651 12.6438 79.8996 11.5861 79.8996C10.5287 79.8996 10.2191 78.9648 10.2191 78.9648C10.2191 78.9648 9.67751 83.9993 14.81 83.9993C17.7763 83.9993 18.7376 81.7173 18.7376 81.7173L21.7999 81.4576V65.4912Z" fill="#423C3C"/>
<path d="M21.8756 82.844C18.6262 82.844 16.1323 79.6792 16.1323 74.4372C16.1323 67.8998 18.1957 66.3818 21.8756 66.3818C25.5555 66.3818 27.6185 67.8998 27.6185 74.4372C27.6185 79.6792 25.1257 82.844 21.8756 82.844Z" fill="#FED6B7"/>
<path d="M21.804 66.3823V82.8403C18.5897 82.7933 16.1323 79.6403 16.1323 74.4367C16.1323 67.9422 18.1696 66.4015 21.804 66.3823Z" fill="#FFDEBF"/>
<path d="M21.7661 65.9494V65.9485C21.774 65.9485 21.7812 65.9485 21.7888 65.9485C21.7964 65.9485 21.8039 65.9485 21.8115 65.9485V65.9494C28.1063 65.9776 28.4563 71.6612 28.2722 72.5651C28.0702 73.5578 27.3291 75.4563 27.3291 75.4563C26.7933 73.6285 27.7599 70.1341 26.1864 69.583C24.613 69.0319 22.7784 69.9761 21.8239 69.9761C20.8694 69.9761 19.0345 69.0319 17.4617 69.583C15.8886 70.1341 16.8548 73.6285 16.3191 75.4563C16.3191 75.4563 15.578 73.5578 15.376 72.5651C15.1929 71.6616 15.472 65.9776 21.7661 65.9494Z" fill="#423C3C"/>
<path d="M24.6004 82.5132L25.2393 82.9933L26.8623 86.3491L21.8247 87.8521L24.6004 82.5132Z" fill="#FBE6E6"/>
<path opacity="0.7" d="M52.1384 112.774C52.0294 112.348 51.7427 111.979 51.3415 111.749L48.6506 110.208H48.6509L36.242 103.099L36.2406 103.1L28.5482 98.6932C27.7124 98.2147 26.6179 98.4565 26.1032 99.233L20.9779 106.964L17.1673 106.054C16.2166 105.827 15.2484 106.36 15.0041 107.244L10.8601 122.242C10.7187 122.754 10.8577 123.267 11.1787 123.656C11.412 123.939 11.7389 124.158 12.139 124.254L15.4321 125.04L15.4332 125.039L38.0721 130.444C39.0224 130.671 39.9906 130.138 40.2353 129.255L40.664 127.704L40.7383 127.746C41.5733 128.225 42.6682 127.983 43.1833 127.206L49.1027 118.276L49.103 118.277L51.2356 115.058L51.9223 114.022C52.1694 113.65 52.2472 113.2 52.1384 112.774Z" fill="#808080"/>
<path d="M10.4444 121.856C10.2004 122.74 10.7733 123.64 11.724 123.867L37.656 130.058C38.6063 130.285 39.5746 129.752 39.8192 128.869L43.9628 113.87C44.0802 113.446 44.0114 112.996 43.7715 112.618C43.5314 112.241 43.1402 111.968 42.6836 111.859L16.7516 105.668C15.8009 105.441 14.8327 105.974 14.5884 106.858L10.4444 121.856Z" fill="#C2C2C2"/>
<path opacity="0.25" d="M12.3413 114.993L25.5049 107.757L39.6229 111.128L15.0165 124.654L11.7234 123.868C10.7734 123.64 10.2012 122.74 10.4452 121.856L12.3413 114.993Z" fill="white"/>
<path d="M13.2444 111.695L42.6201 118.706L43.6553 114.959L14.2795 107.948L13.2444 111.695Z" fill="#3B3636"/>
<path d="M13.7849 115.32L40.6794 121.739L41.3757 119.218L14.4811 112.799L13.7849 115.32Z" fill="white"/>
<path d="M21.5339 119.407L40.1011 123.839L40.4145 122.704L21.8474 118.272L21.5339 119.407Z" fill="#494949"/>
<path d="M20.8865 121.748L39.4529 126.179L39.7664 125.044L21.2 120.613L20.8865 121.748Z" fill="#494949"/>
<path d="M20.2439 124.087L38.8101 128.519L39.1238 127.383L20.5576 122.952L20.2439 124.087Z" fill="#494949"/>
<path d="M16.9479 112.03C16.4331 112.807 16.6932 113.825 17.529 114.303L40.3224 127.36C41.1574 127.838 42.2523 127.596 42.7674 126.82L51.5068 113.636C51.7542 113.263 51.8319 112.814 51.7232 112.388C51.6141 111.962 51.3275 111.593 50.9263 111.363L28.1329 98.3067C27.2975 97.8282 26.2027 98.07 25.688 98.8469L16.9479 112.03Z" fill="#FF6098"/>
<path opacity="0.25" d="M20.9475 105.998L35.8265 102.714L48.2355 109.822L20.4224 115.962L17.5278 114.304C16.693 113.825 16.4336 112.807 16.9483 112.03L20.9475 105.998Z" fill="white"/>
<path d="M22.8691 103.106L48.688 117.896L50.8715 114.602L25.0526 99.8126L22.8691 103.106Z" fill="#3B3636"/>
<path d="M22.23 106.718L45.8679 120.258L47.3362 118.043L23.6983 104.503L22.23 106.718Z" fill="white"/>
<path d="M28.3251 112.745L44.6438 122.091L45.3035 121.096L28.9848 111.749L28.3251 112.745Z" fill="#494949"/>
<path d="M26.9648 114.814L43.282 124.162L43.9423 123.166L27.6251 113.818L26.9648 114.814Z" fill="#494949"/>
<path d="M25.6005 116.859L41.9182 126.206L42.5785 125.209L26.2607 115.863L25.6005 116.859Z" fill="#494949"/>
<g opacity="0.7">
<path opacity="0.1" d="M47.959 40.7048V25.2306C47.959 24.8116 47.5936 24.4719 47.1428 24.4719H24.4936C24.0428 24.4719 23.6774 24.8116 23.6774 25.2306V40.7048H23.6771V28.7872H22.4532V23.1919H20.4129V26.5586H16.3831V28.7875H14.1384C13.6876 28.7875 13.3222 29.1272 13.3222 29.5462V40.7052H9.78516V45.9531H51.3422V40.7052H47.959V40.7048Z" fill="#808080"/>
<path opacity="0.1" d="M14.1384 23.1914H29.8239C30.2747 23.1914 30.6401 22.8517 30.6401 22.4327V17.6904C30.6401 17.2713 30.2747 16.9316 29.8239 16.9316H14.1384C13.6877 16.9316 13.3223 17.2713 13.3223 17.6904V22.4327C13.3219 22.8517 13.6877 23.1914 14.1384 23.1914Z" fill="#808080"/>
</g>
<path d="M50.9644 40.3525H9.40747V45.6006H50.9644V40.3525Z" fill="#454545"/>
<path d="M50.1484 41.1111H10.2239V44.8416H50.1484V41.1111Z" fill="#4F4F4F"/>
<path d="M30.186 43.6565C30.5898 43.6565 30.9172 43.3521 30.9172 42.9766C30.9172 42.601 30.5898 42.2966 30.186 42.2966C29.7822 42.2966 29.4548 42.601 29.4548 42.9766C29.4548 43.3521 29.7822 43.6565 30.186 43.6565Z" fill="#2C2828"/>
<path d="M23.2995 40.3525H12.9443V29.1935C12.9443 28.7745 13.3097 28.4348 13.7605 28.4348H23.2995V40.3525Z" fill="white"/>
<path d="M47.5807 40.3533H23.2993V24.8797C23.2993 24.4608 23.6647 24.1211 24.1155 24.1211H46.7643C47.215 24.1211 47.5804 24.4608 47.5804 24.8797V40.3533H47.5807Z" fill="white"/>
<path d="M30.2621 22.0818C30.2621 22.5009 29.8967 22.8406 29.446 22.8406H13.7605C13.3097 22.8406 12.9443 22.5009 12.9443 22.0818V17.3393C12.9443 16.9203 13.3097 16.5806 13.7605 16.5806H29.446C29.8967 16.5806 30.2621 16.9203 30.2621 17.3393V22.0818Z" fill="white"/>
<path d="M29.0384 17.7214H14.1687V21.7048H29.0384V17.7214Z" fill="#BAA9C7"/>
<path d="M22.0751 32.7505H14.8313V33.8899H22.0751V32.7505Z" fill="#858585"/>
<path d="M46.3395 25.2119H24.5405V29.48H46.3395V25.2119Z" fill="#858585"/>
<path d="M41.7481 30.5852H38.3132V31.9761H41.7481V30.5852Z" fill="#F9C13A"/>
<path d="M46.3392 30.5852H42.9043V31.9761H46.3392V30.5852Z" fill="#F9C13A"/>
<path d="M41.7481 33.061H38.3132V34.4539H41.7481V33.061Z" fill="#402864"/>
<path d="M46.3392 33.061H42.9043V34.4539H46.3392V33.061Z" fill="#402864"/>
<path d="M41.7481 35.5376H38.3132V36.929H41.7481V35.5376Z" fill="#402864"/>
<path d="M46.3392 35.5376H42.9043V36.929H46.3392V35.5376Z" fill="#402864"/>
<path d="M27.9754 30.5852H24.5405V31.9761H27.9754V30.5852Z" fill="#FF7E88"/>
<path d="M32.5663 30.5852H29.1318V31.9761H32.5663V30.5852Z" fill="#FF7E88"/>
<path d="M37.1575 30.5852H33.7227V31.9761H37.1575V30.5852Z" fill="#FF7E88"/>
<path d="M27.9751 33.063H24.5405V34.4553H27.9751V33.063Z" fill="#FF7E88"/>
<path d="M32.5663 33.063H29.1318V34.4553H32.5663V33.063Z" fill="#FF7E88"/>
<path d="M37.1575 33.063H33.7227V34.4553H37.1575V33.063Z" fill="#FF7E88"/>
<path d="M27.9751 35.5376H24.5405V36.9292H27.9751V35.5376Z" fill="#FF7E88"/>
<path d="M32.5663 35.5376H29.1318V36.9292H32.5663V35.5376Z" fill="#FF7E88"/>
<path d="M37.1575 35.5376H33.7227V36.9292H37.1575V35.5376Z" fill="#FF7E88"/>
<path d="M27.9755 38.0144H24.5405V39.4062H27.9755V38.0144Z" fill="#FF7E88"/>
<path d="M32.5663 38.0144H29.1318V39.4062H32.5663V38.0144Z" fill="#FF7E88"/>
<path d="M37.1575 38.0144H33.7227V39.4062H37.1575V38.0144Z" fill="#FF7E88"/>
<path d="M41.7481 38.0134H38.3132V39.405H41.7481V38.0134Z" fill="#402864"/>
<path d="M46.3392 38.0134H42.9043V39.405H46.3392V38.0134Z" fill="#402864"/>
<path d="M22.0753 22.8406H20.0347V28.436H22.0753V22.8406Z" fill="#BAA9C7"/>
<path d="M20.9022 26.2075H16.0049V32.7524H20.9022V26.2075Z" fill="#F9B63E"/>
<path opacity="0.5" d="M29.0382 21.1013V17.7214H25.4021L29.0382 21.1013Z" fill="white"/>
<path opacity="0.5" d="M14.1687 18.3201V21.7034H17.8854L14.1687 18.3201Z" fill="white"/>
<path opacity="0.1" d="M33.7985 29.48H41.2166L36.6257 25.2119H29.2075L33.7985 29.48Z" fill="white"/>
<path opacity="0.7" d="M94.9114 1.32007H59.8291V26.6688H72.8116V31.4065H76.647H77.0675H82.4222H87.765H88.1841H92.0174V26.6688H94.9114V1.32007Z" fill="#808080"/>
<path d="M94.6616 1.0896H59.5793V26.438H94.6616V1.0896Z" fill="#535353"/>
<path d="M93.351 2.58008H60.8904V7.06909H93.351V2.58008Z" fill="#494949"/>
<path d="M93.3509 8.4585H60.8904V12.9475H93.3509V8.4585Z" fill="#494949"/>
<path d="M93.3509 14.3372H60.8904V18.8267H93.3509V14.3372Z" fill="#494949"/>
<path d="M93.3509 20.2141H60.8904V24.7034H93.3509V20.2141Z" fill="#494949"/>
<path d="M64.7847 2.86908H61.5508V7.07025H64.7847V2.86908Z" fill="#FBE6E6"/>
<path d="M64.7852 2.86853H63.168V7.06921H64.7852V2.86853Z" fill="white"/>
<path d="M64.7847 6.66943H61.5508V7.07104H64.7847V6.66943Z" fill="#FF6098"/>
<path d="M63.1678 5.32227C63.4629 5.32227 63.7021 5.09983 63.7021 4.82544C63.7021 4.55105 63.4629 4.32861 63.1678 4.32861C62.8728 4.32861 62.6335 4.55105 62.6335 4.82544C62.6335 5.09983 62.8728 5.32227 63.1678 5.32227Z" fill="#FF6098"/>
<path d="M64.7847 2.86908H61.5508V3.2702H64.7847V2.86908Z" fill="#FF6098"/>
<path d="M69.4362 2.86963H66.2019V7.07031H69.4362V2.86963Z" fill="#FBE6E6"/>
<path d="M69.4362 2.86963H67.8191V7.07031H69.4362V2.86963Z" fill="white"/>
<path d="M69.4364 6.6687H66.2021V7.07031H69.4364V6.6687Z" fill="#FF6098"/>
<path d="M67.819 5.32324C68.1141 5.32324 68.3533 5.10081 68.3533 4.82642C68.3533 4.55203 68.1141 4.32959 67.819 4.32959C67.5239 4.32959 67.2847 4.55203 67.2847 4.82642C67.2847 5.10081 67.5239 5.32324 67.819 5.32324Z" fill="#FF6098"/>
<path d="M69.4362 2.86963H66.2019V3.27051H69.4362V2.86963Z" fill="#FF6098"/>
<path d="M74.0868 2.86963H70.8528V7.07031H74.0868V2.86963Z" fill="#FBE6E6"/>
<path d="M74.0871 2.86963H72.47V7.07031H74.0871V2.86963Z" fill="white"/>
<path d="M74.0869 6.6687H70.853V7.07031H74.0869V6.6687Z" fill="#FF6098"/>
<path d="M72.4699 5.32324C72.765 5.32324 73.0042 5.10081 73.0042 4.82642C73.0042 4.55203 72.765 4.32959 72.4699 4.32959C72.1748 4.32959 71.9355 4.55203 71.9355 4.82642C71.9355 5.10081 72.1748 5.32324 72.4699 5.32324Z" fill="#FF6098"/>
<path d="M74.0868 2.86963H70.8528V3.27051H74.0868V2.86963Z" fill="#FF6098"/>
<path d="M78.7376 2.86914H75.5037V7.07007H78.7376V2.86914Z" fill="#FBE6E6"/>
<path d="M78.7379 2.86914H77.1208V7.07007H78.7379V2.86914Z" fill="white"/>
<path d="M78.7376 6.6687H75.5037V7.0686H78.7376V6.6687Z" fill="#FF6098"/>
<path d="M77.121 5.32251C77.4161 5.32251 77.6553 5.10007 77.6553 4.82568C77.6553 4.55129 77.4161 4.32886 77.121 4.32886C76.8259 4.32886 76.5867 4.55129 76.5867 4.82568C76.5867 5.10007 76.8259 5.32251 77.121 5.32251Z" fill="#FF6098"/>
<path d="M78.7376 2.86914H75.5037V3.27026H78.7376V2.86914Z" fill="#FF6098"/>
<path d="M83.3888 2.86963H80.1548V7.07031H83.3888V2.86963Z" fill="#FBE6E6"/>
<path d="M83.3892 2.86963H81.772V7.07031H83.3892V2.86963Z" fill="white"/>
<path d="M83.3889 6.6687H80.155V7.07031H83.3889V6.6687Z" fill="#FF6098"/>
<path d="M81.7721 5.32324C82.0672 5.32324 82.3064 5.10081 82.3064 4.82642C82.3064 4.55203 82.0672 4.32959 81.7721 4.32959C81.477 4.32959 81.2378 4.55203 81.2378 4.82642C81.2378 5.10081 81.477 5.32324 81.7721 5.32324Z" fill="#FF6098"/>
<path d="M83.3888 2.86963H80.1548V3.27051H83.3888V2.86963Z" fill="#FF6098"/>
<path d="M66.2285 10.853H61.7786V12.8975H66.2285V10.853Z" fill="#FBE6E6"/>
<path d="M66.522 10.8064H61.4858V12.2019H66.522V10.8064Z" fill="white"/>
<path d="M72.7708 10.853H68.3206V12.8975H72.7708V10.853Z" fill="#FBE6E6"/>
<path d="M73.0635 10.8064H68.0276V12.2019H73.0635V10.8064Z" fill="white"/>
<path d="M79.3129 10.853H74.863V12.8975H79.3129V10.853Z" fill="#FBE6E6"/>
<path d="M79.6057 10.8064H74.5698V12.2019H79.6057V10.8064Z" fill="white"/>
<path d="M85.855 10.853H81.405V12.8975H85.855V10.853Z" fill="#FBE6E6"/>
<path d="M86.1478 10.8064H81.1121V12.2019H86.1478V10.8064Z" fill="white"/>
<path d="M64.4434 15.1677H61.7786V18.7917H64.4434V15.1677Z" fill="#9578FF"/>
<path d="M64.4434 15.1677H63.1111V18.7917H64.4434V15.1677Z" fill="#BEACFF"/>
<path d="M64.4434 15.1677H61.7786V15.4722H64.4434V15.1677Z" fill="white"/>
<path d="M64.4434 18.4851H61.7786V18.7908H64.4434V18.4851Z" fill="white"/>
<path d="M63.1111 16.481C63.604 16.481 64.0036 16.3247 64.0036 16.1318C64.0036 15.939 63.604 15.7827 63.1111 15.7827C62.6181 15.7827 62.2185 15.939 62.2185 16.1318C62.2185 16.3247 62.6181 16.481 63.1111 16.481Z" fill="white"/>
<path d="M68.4378 15.1677H65.7729V18.7917H68.4378V15.1677Z" fill="#9578FF"/>
<path d="M68.438 15.1677H67.1057V18.7917H68.438V15.1677Z" fill="#BEACFF"/>
<path d="M68.4378 15.1677H65.7729V15.4722H68.4378V15.1677Z" fill="white"/>
<path d="M68.4378 18.4851H65.7729V18.7908H68.4378V18.4851Z" fill="white"/>
<path d="M67.1057 16.481C67.5986 16.481 67.9982 16.3247 67.9982 16.1318C67.9982 15.939 67.5986 15.7827 67.1057 15.7827C66.6127 15.7827 66.2131 15.939 66.2131 16.1318C66.2131 16.3247 66.6127 16.481 67.1057 16.481Z" fill="white"/>
<path d="M72.4329 15.1677H69.7678V18.7917H72.4329V15.1677Z" fill="#9578FF"/>
<path d="M72.4329 15.1677H71.1003V18.7917H72.4329V15.1677Z" fill="#BEACFF"/>
<path d="M72.4329 15.1677H69.7678V15.4722H72.4329V15.1677Z" fill="white"/>
<path d="M72.433 18.4851H69.7678V18.7908H72.433V18.4851Z" fill="white"/>
<path d="M71.1003 16.481C71.5932 16.481 71.9928 16.3247 71.9928 16.1318C71.9928 15.939 71.5932 15.7827 71.1003 15.7827C70.6074 15.7827 70.2078 15.939 70.2078 16.1318C70.2078 16.3247 70.6074 16.481 71.1003 16.481Z" fill="white"/>
<path d="M76.4274 15.1677H73.7622V18.7917H76.4274V15.1677Z" fill="#9578FF"/>
<path d="M76.4272 15.1677H75.0947V18.7917H76.4272V15.1677Z" fill="#BEACFF"/>
<path d="M76.4274 15.1677H73.7622V15.4722H76.4274V15.1677Z" fill="white"/>
<path d="M76.4274 18.4851H73.7622V18.7908H76.4274V18.4851Z" fill="white"/>
<path d="M75.0947 16.481C75.5876 16.481 75.9872 16.3247 75.9872 16.1318C75.9872 15.939 75.5876 15.7827 75.0947 15.7827C74.6017 15.7827 74.2021 15.939 74.2021 16.1318C74.2021 16.3247 74.6017 16.481 75.0947 16.481Z" fill="white"/>
<path d="M80.4219 15.1677H77.7576V18.7917H80.4219V15.1677Z" fill="#9578FF"/>
<path d="M80.4221 15.1677H79.0898V18.7917H80.4221V15.1677Z" fill="#BEACFF"/>
<path d="M80.4219 15.1677H77.7576V15.4722H80.4219V15.1677Z" fill="white"/>
<path d="M80.4219 18.4851H77.7576V18.7908H80.4219V18.4851Z" fill="white"/>
<path d="M79.0893 16.481C79.5822 16.481 79.9818 16.3247 79.9818 16.1318C79.9818 15.939 79.5822 15.7827 79.0893 15.7827C78.5964 15.7827 78.1968 15.939 78.1968 16.1318C78.1968 16.3247 78.5964 16.481 79.0893 16.481Z" fill="white"/>
<path d="M84.4169 15.1677H81.752V18.7917H84.4169V15.1677Z" fill="#9578FF"/>
<path d="M84.4169 15.1677H81.752V15.4722H84.4169V15.1677Z" fill="white"/>
<path d="M84.4167 18.4851H81.752V18.7908H84.4167V18.4851Z" fill="white"/>
<path d="M64.4446 21.0791H61.7798V24.7031H64.4446V21.0791Z" fill="#FF6098"/>
<path d="M64.4436 21.0791H63.1113V24.7031H64.4436V21.0791Z" fill="#FF7E88"/>
<path d="M64.5123 21.0791H61.7095V21.384H64.5123V21.0791Z" fill="white"/>
<path d="M68.4387 21.0791H65.7739V24.7031H68.4387V21.0791Z" fill="#FF6098"/>
<path d="M68.4379 21.0791H67.106V24.7031H68.4379V21.0791Z" fill="#FF7E88"/>
<path d="M68.5073 21.0791H65.7041V21.384H68.5073V21.0791Z" fill="white"/>
<path d="M72.4337 21.0791H69.7688V24.7031H72.4337V21.0791Z" fill="#FF6098"/>
<path d="M72.4326 21.0791H71.1003V24.7031H72.4326V21.0791Z" fill="#FF7E88"/>
<path d="M72.5015 21.0791H69.6987V21.384H72.5015V21.0791Z" fill="white"/>
<path d="M76.4282 21.0791H73.7632V24.7031H76.4282V21.0791Z" fill="#FF6098"/>
<path d="M76.4269 21.0791H75.0947V24.7031H76.4269V21.0791Z" fill="#FF7E88"/>
<path d="M76.496 21.0791H73.6931V21.384H76.496V21.0791Z" fill="white"/>
<path d="M80.4229 21.0791H77.7581V24.7031H80.4229V21.0791Z" fill="#FF6098"/>
<path d="M80.4222 21.0791H79.0898V24.7031H80.4222V21.0791Z" fill="#FF7E88"/>
<path d="M80.4907 21.0791H77.688V21.384H80.4907V21.0791Z" fill="white"/>
<path d="M84.4175 21.0791H81.7527V24.7031H84.4175V21.0791Z" fill="#FF6098"/>
<path d="M84.4857 21.0791H81.6829V21.384H84.4857V21.0791Z" fill="white"/>
<path d="M76.8181 31.1753L77.2526 27.283L74.7873 20.5779C74.7873 20.5779 74.0376 20.9661 73.826 21.1446C73.2679 21.6096 72.5625 22.6148 72.5625 23.6738V31.1753H76.8181Z" fill="white"/>
<path d="M85.3081 17.5833L84.8612 17.28L81.9596 17.796L79.484 17.28L79.037 17.5833C78.7951 17.7467 78.6523 18.0084 78.6523 18.2857V20.2587C78.6523 20.7904 78.8096 21.3111 79.1072 21.765L81.3791 25.2363H82.1715V25.2232L82.1733 25.2373H82.9657L85.2386 21.766C85.5369 21.3114 85.6938 20.7904 85.6938 20.2584V18.2854C85.6928 18.0074 85.55 17.7464 85.3081 17.5833Z" fill="white"/>
<path d="M78.1156 14.0289C78.1156 14.0289 77.4447 14.6923 77.1199 13.111C76.7714 11.4203 76.7838 10.503 77.4086 10.3098C77.8073 10.186 77.9209 10.5017 77.9209 10.5017L78.1156 14.0289Z" fill="#FFCEAD"/>
<path d="M79.4841 16.4109V17.6075C79.4841 18.0429 79.6947 18.4555 80.0577 18.7303L81.179 19.5805C81.7502 20.0139 82.5701 20.0155 83.1433 19.585L84.2815 18.7306C84.648 18.4555 84.861 18.041 84.861 17.6034V16.2964L79.4841 16.4109Z" fill="#FFCEAD"/>
<path d="M79.4841 17.2893C80.2081 18.0347 81.114 18.4412 82.1194 18.4412C83.1733 18.4412 84.1216 17.9973 84.8613 17.1796V16.2957L79.4841 16.4108V17.2893Z" fill="#FCC097"/>
<path d="M82.1193 17.8438C84.5743 17.8438 86.457 15.4533 86.457 11.4931C86.457 6.55481 84.898 5.4082 82.1193 5.4082C79.3385 5.4082 77.7805 6.55481 77.7805 11.4931C77.7805 15.4533 79.6636 17.8438 82.1193 17.8438Z" fill="#FED6B7"/>
<path d="M77.9259 12.7161C76.0827 11.8924 74.7563 4.24219 81.4324 4.24219C83.2508 4.24219 84.0043 5.01463 84.0043 5.01463C85.4126 3.83182 90.3618 6.63917 86.3055 12.226C86.3055 12.226 86.7063 9.61892 85.1993 8.52311C84.1278 7.74426 83.9527 7.189 83.9527 7.189C83.9527 7.189 83.2277 8.37725 81.1093 8.87718C79.0028 9.3736 78.4437 10.6431 77.9259 12.7161Z" fill="#BF9170"/>
<path d="M83.1991 25.2367L82.6857 22.4673H82.1727H82.1593H81.6473L81.1333 25.2367L82.1727 25.8262L83.1991 25.2367Z" fill="#FF6098"/>
<path d="M82.1725 22.81L82.9583 22.3315C83.2026 22.1828 83.3027 21.8962 83.1999 21.6425L82.8369 20.7469C82.7454 20.5214 82.5131 20.3721 82.2537 20.3721H82.1725H82.1715H82.0913C81.8319 20.3721 81.5996 20.5214 81.5081 20.7469L81.1448 21.6425C81.0419 21.8965 81.1424 22.1828 81.3863 22.3315L82.1715 22.81V22.8103H82.1725V22.81Z" fill="#FF6098"/>
<path d="M87.9346 31.1753C88.1899 26.666 89.5445 20.5768 89.5445 20.5768L85.6812 18.1477V20.0379C85.6812 20.6078 85.4992 21.165 85.1603 21.6396L82.1727 25.8258L79.1717 21.6396C78.8327 21.165 78.6521 20.6078 78.6521 20.0379V18.1477L74.7871 20.5768C74.7871 20.5768 76.1417 26.666 76.3977 31.1753H87.9346Z" fill="#492A79"/>
<path opacity="0.7" d="M98.199 92.5541V70.2279V69.1888H99.3242L95.1027 60.628H91.7122V59.7059H92.4802V58.3984H87.2348V59.7059H88.0028V60.628H78.6701H62.2369L58.0158 69.1888H59.1399V70.2279V92.5541H57.7563V93.6243H59.1399H61.268H72.1414H98.199H99.5839V92.5541H98.199Z" fill="#808080"/>
<path d="M97.5771 68.6111H58.5181V93.0466H97.5771V68.6111Z" fill="white"/>
<path d="M98.9622 91.9766H57.1348V93.0466H98.9622V91.9766Z" fill="#492A79"/>
<path d="M98.7025 68.6123H57.3945L61.6153 60.0505H94.4811L98.7025 68.6123Z" fill="#492A79"/>
<path d="M98.7024 68.6123L94.4809 60.0505H78.0483V68.6123H98.7024Z" fill="#4A398B"/>
<path d="M71.5196 72.4756H60.6462V93.0466H71.5196V72.4756Z" fill="#FF6098"/>
<path d="M95.3134 73.4861H73.6318V86.9873H95.3134V73.4861Z" fill="#A9F3FA"/>
<path d="M80.0143 87.0134V87.0099L78.8631 85.9431L77.9461 85.0906C77.9461 85.0583 77.9423 85.0263 77.9382 84.9905H77.9575C77.4665 84.669 77.1482 84.1374 77.1482 83.535C77.1482 82.5498 78.0032 81.7507 79.0668 81.7507C79.5309 81.7507 79.9569 81.9043 80.2872 82.1576L80.3219 82.1858L80.5174 82.3681L80.5484 82.4004L84.3593 85.9428L85.5144 87.0131H80.0143V87.0134Z" fill="#A0EAF1"/>
<path d="M70.4318 73.4871H61.7974V86.9878H70.4318V73.4871Z" fill="#A9F3FA"/>
<g opacity="0.5">
<path opacity="0.5" d="M67.2585 86.9878H64.4113L61.7974 84.5559V81.9158L67.2585 86.9878Z" fill="white"/>
</g>
<g opacity="0.5">
<path opacity="0.5" d="M70.4319 76.2906V80.3257L63.0715 73.4861H67.4155L70.4319 76.2906Z" fill="white"/>
</g>
<path d="M96.2719 86.9878H72.6711V88.0581H96.2719V86.9878Z" fill="#492A79"/>
<path d="M96.2719 72.5359H72.6711L74.5894 70.6333H94.353L96.2719 72.5359Z" fill="#EBFF30"/>
<path d="M95.3122 80.0601H73.6304V80.417H95.3122V80.0601Z" fill="#FF6098"/>
<path d="M79.2583 73.4871H78.875V86.9878H79.2583V73.4871Z" fill="#FF6098"/>
<path d="M70.4322 80.0601H61.6704V80.417H70.4322V80.0601Z" fill="#FF6098"/>
<path d="M66.3076 73.4871H65.9236V86.9878H66.3076V73.4871Z" fill="#FF6098"/>
<path d="M96.291 72.5352H72.6897V74.4395H96.291V72.5352Z" fill="#FF6098"/>
<path d="M66.9141 87.5649H61.7974V88.6372H66.9141V87.5649Z" fill="white"/>
<g opacity="0.5">
<path opacity="0.5" d="M79.0907 86.9878H76.2439L73.6304 84.5559V81.9158L79.0907 86.9878Z" fill="white"/>
</g>
<path d="M80.9856 83.5254C80.9856 84.1256 80.6666 84.6567 80.1757 84.9818C79.8608 85.1888 79.4806 85.3101 79.0667 85.3101C78.6562 85.3101 78.2685 85.1888 77.9574 84.9818C77.4665 84.6606 77.1482 84.1292 77.1482 83.5254C77.1482 82.5413 78.0039 81.7415 79.0667 81.7415C79.5309 81.7415 79.9568 81.895 80.2871 82.1484L80.3212 82.1766C80.391 82.2342 80.4561 82.295 80.5173 82.3589L80.5483 82.3913C80.8201 82.6978 80.9856 83.0945 80.9856 83.5254Z" fill="#006B00"/>
<path d="M79.2562 82.8091H78.8723V85.6094H79.2562V82.8091Z" fill="#3D2323"/>
<path d="M79.1878 84.7226L78.1855 83.7886L77.9148 84.0409L78.917 84.975L79.1878 84.7226Z" fill="#3D2323"/>
<path d="M80.1046 83.3925L79.8328 83.1404L78.9254 83.9857L79.1973 84.2379L80.1046 83.3925Z" fill="#3D2323"/>
<path d="M80.1904 84.981C80.1564 85.3839 80.1292 85.6876 80.1027 85.9913C80.0755 86.2949 80.0528 86.5938 80.015 87.0009V87.0044H78.1144C78.0769 86.598 78.0539 86.2949 78.0267 85.9913C78.0036 85.7129 77.9768 85.438 77.9462 85.0809C77.9462 85.0485 77.9424 85.0172 77.939 84.9807H80.1904V84.981Z" fill="#EAA42D"/>
<path d="M74.3206 72.5352H72.6711V74.4395H74.3206V72.5352Z" fill="#FF3C81"/>
<path d="M77.4561 72.5352H75.8066V74.4395H77.4561V72.5352Z" fill="#FF3C81"/>
<path d="M80.5925 72.5352H78.9424V74.4395H80.5925V72.5352Z" fill="#FF3C81"/>
<path d="M96.2567 72.5359C95.5307 72.5359 94.8336 72.5359 94.1595 72.5359C93.4855 72.5359 92.8352 72.5359 92.2045 72.5359C91.5728 72.5359 90.9617 72.5359 90.3648 72.5359C89.7675 72.5359 89.1863 72.5359 88.6152 72.5359C88.045 72.5359 87.4849 72.5359 86.9309 72.5359C86.3783 72.5359 85.8306 72.5359 85.2852 72.5359C84.7399 72.5359 84.1969 72.5359 83.6519 72.5359C83.1066 72.5359 82.5602 72.5359 82.0062 72.5359C81.4523 72.5359 80.8921 72.5359 80.3217 72.5359C79.7508 72.5359 79.1687 72.5359 78.572 72.5359C77.9754 72.5359 77.3654 72.5359 76.734 72.5359C76.1026 72.5359 75.4524 72.5359 74.7783 72.5359C74.1046 72.5359 73.4072 72.5359 72.6819 72.5359C72.8192 72.1552 72.9217 71.8702 73.0249 71.5845C73.1281 71.2988 73.2307 71.0138 73.3687 70.6331C74.1088 70.6331 74.8179 70.6331 75.5009 70.6331C76.1845 70.6331 76.8431 70.6331 77.4807 70.6331C78.1175 70.6331 78.7345 70.6331 79.3355 70.6331C79.9366 70.6331 80.5226 70.6331 81.0975 70.6331C81.6735 70.6331 82.2374 70.6331 82.799 70.6331C83.3591 70.6331 83.9131 70.6331 84.4684 70.6331C85.0237 70.6331 85.5787 70.6331 86.1389 70.6331C86.699 70.6331 87.264 70.6331 87.8389 70.6331C88.4153 70.6331 89.0012 70.6331 89.6033 70.6331C90.2044 70.6331 90.8213 70.6331 91.4582 70.6331C92.0961 70.6331 92.753 70.6331 93.4366 70.6331C94.1203 70.6331 94.8301 70.6331 95.5695 70.6331C95.7079 71.0134 95.8118 71.2988 95.9146 71.5845C96.0168 71.8702 96.1194 72.1555 96.2567 72.5359Z" fill="#FF959D"/>
<path d="M74.3296 72.5359C73.6704 72.5359 73.3404 72.5359 72.6812 72.5359C72.8184 72.1552 72.921 71.8702 73.0242 71.5845C73.1274 71.2988 73.2299 71.0138 73.3679 70.6331C73.9886 70.6331 74.299 70.6331 74.9197 70.6331C74.8017 71.0134 74.7132 71.2988 74.6248 71.5845C74.5367 71.8702 74.4476 72.1555 74.3296 72.5359Z" fill="#FF646E"/>
<path d="M77.4617 72.5359C76.8028 72.5359 76.4725 72.5359 75.813 72.5359C75.9138 72.1552 75.9905 71.8695 76.0666 71.5838C76.1419 71.2988 76.2176 71.0138 76.3184 70.6331C76.9391 70.6331 77.2494 70.6331 77.8701 70.6331C77.7886 71.0134 77.7266 71.2988 77.6654 71.5845C77.6038 71.8702 77.5433 72.1555 77.4617 72.5359Z" fill="#FF646E"/>
<path d="M80.5936 72.5359C79.934 72.5359 79.6037 72.5359 78.9441 72.5359C79.0091 72.1552 79.0573 71.8702 79.1055 71.5845C79.1536 71.2988 79.2025 71.0138 79.2668 70.6331C79.8882 70.6331 80.1986 70.6331 80.8199 70.6331C80.7742 71.0134 80.7408 71.2988 80.7061 71.5845C80.6727 71.8702 80.6393 72.1555 80.5936 72.5359Z" fill="#FF646E"/>
<path d="M97.5771 68.6111H58.5181V69.6521H97.5771V68.6111Z" fill="#FF6098"/>
</svg>
