<svg width="80" height="78" viewBox="0 0 80 78" fill="none" xmlns="http://www.w3.org/2000/svg">
<path d="M42.5814 78C41.9619 78 41.3427 77.8423 40.7903 77.5265L2.97097 55.9144C2.69545 55.7569 2.53085 55.475 2.53085 55.16C2.53085 54.845 2.69545 54.5631 2.97097 54.4056L26.6543 40.8715L26.8381 40.9766L66.2648 63.5074C66.5403 63.6649 66.7049 63.9468 66.7049 64.2618C66.7049 64.5768 66.5403 64.8587 66.2648 65.0162L44.3728 77.5265C43.8201 77.8423 43.2006 78 42.5814 78ZM26.6541 41.7115L3.3385 55.0356C3.27524 55.0717 3.26593 55.1291 3.26593 55.16C3.26593 55.1909 3.27551 55.2484 3.3385 55.2845L41.1578 76.8968C42.0361 77.3988 43.1269 77.3988 44.005 76.8968L65.8969 64.3865C65.9599 64.3504 65.9695 64.2929 65.9695 64.262C65.9695 64.2311 65.9599 64.1737 65.8969 64.1376L26.6541 41.7115Z" fill="url(#paint0_linear_1457_5340)"/>
<path d="M26.6053 31.9407L31.8741 1.0006L31.4504 0.824131L32.0869 0.462783L32.0858 0.466578C32.2093 0.385254 32.384 0.390134 32.5763 0.500192L74.6847 24.5636C75.0306 24.7612 75.2921 25.2679 75.2313 25.6222L69.9212 56.8084C69.8933 56.9711 69.8122 57.0787 69.6994 57.1259L69.6999 57.1261L69.0769 57.4823L68.9698 56.9068L69.0054 56.9174L27.1523 32.9996C26.8063 32.802 26.5448 32.295 26.6053 31.9407Z" fill="url(#paint1_linear_1457_5340)"/>
<path d="M74.4505 25.4093L75.1429 25.1063C75.2207 25.2817 75.2587 25.4663 75.2319 25.6221L69.9212 56.8084C69.8933 56.971 69.8122 57.0787 69.6994 57.1258L69.6999 57.1261L69.0769 57.4823L68.9698 56.9068L69.0054 56.9174L66.8875 55.707L74.4505 25.4093Z" fill="url(#paint2_linear_1457_5340)"/>
<path d="M26.4917 33.3747L68.6001 57.4381C68.9251 57.6238 69.2037 57.5167 69.2606 57.1836L74.5713 25.9973C74.6321 25.643 74.3703 25.1361 74.0247 24.9385L31.916 0.875059C31.5909 0.68937 31.3126 0.796718 31.2554 1.12987L25.9447 32.3159C25.8839 32.6702 26.1458 33.1771 26.4917 33.3747Z" fill="#242993"/>
<g opacity="0.51">
<path opacity="0.51" d="M32.4665 2.86566L73.0557 26.0611L68.0225 55.4319L27.4604 32.2522L32.4665 2.86566Z" fill="#4553C7"/>
</g>
<path d="M0.0221863 48.1393L2.32025 49.3272L25.363 36.159C25.7486 35.9386 26.4218 35.9662 26.8671 36.2208L66.6096 58.932C66.99 58.7214 68.7239 57.896 68.7239 57.896L67.8828 60.0654C67.8828 60.0654 67.8801 60.0632 67.8795 60.0627C67.8447 60.1592 67.77 60.2492 67.6443 60.321L43.3756 74.1897C42.99 74.4101 42.3166 74.3824 41.8715 74.1279L1.2023 50.8872C1.01936 50.7829 0.907615 50.6563 0.861057 50.5283L0.858044 50.5305L0.0221863 48.1393Z" fill="url(#paint3_linear_1457_5340)"/>
<path d="M0.377384 48.5134L42.0577 72.332C42.514 72.5928 43.2042 72.621 43.5991 72.3951L68.4713 58.1817C68.8665 57.9559 68.817 57.5614 68.3607 57.3007L26.6803 33.4823C26.2241 33.2215 25.5339 33.1933 25.139 33.4192L0.26674 47.6324C-0.128458 47.8582 -0.0788869 48.2526 0.377384 48.5134Z" fill="url(#paint4_linear_1457_5340)"/>
<path d="M54.6296 67.1796V66.7272C54.6296 66.6844 54.6033 66.6646 54.5707 66.6833L52.9584 67.6047C52.9258 67.6234 52.8995 67.673 52.8995 67.7158V68.1682C52.8995 68.2111 52.9258 68.2308 52.9584 68.2121L54.5707 67.2908C54.6033 67.2723 54.6296 67.2224 54.6296 67.1796Z" fill="#2859CB"/>
<path d="M52.2187 68.5575V68.1051C52.2187 68.0622 52.1924 68.0424 52.1598 68.0611L50.5475 68.9825C50.5149 69.001 50.4886 69.0508 50.4886 69.0937V69.5461C50.4886 69.5889 50.5149 69.6087 50.5475 69.59L52.1598 68.6686C52.1924 68.6502 52.2187 68.6003 52.2187 68.5575Z" fill="#2859CB"/>
<path d="M61.9869 56.8504L27.3505 37.0573C27.1197 36.9253 26.8351 36.9256 26.6042 37.0576L14.2704 44.1208C14.0932 44.2222 14.0935 44.4754 14.2707 44.5765L48.8909 64.3606C49.1215 64.4924 49.4057 64.4924 49.6363 64.3606L61.9869 57.3064C62.1641 57.2052 62.1643 56.9518 61.9869 56.8504Z" fill="#ADC8FF"/>
<path d="M61.9869 57.3064L61.8628 57.3771L27.3505 37.6548C27.1196 37.5228 26.8351 37.523 26.6042 37.655L14.3944 44.6472L14.2707 44.5765C14.0935 44.4751 14.0935 44.2222 14.2704 44.1208L26.6042 37.0576C26.8351 36.9256 27.1196 36.9253 27.3505 37.0573L61.9869 56.8507C62.1643 56.9518 62.1641 57.2052 61.9869 57.3064Z" fill="#91AFFF"/>
<path d="M25.6736 38.8464L55.7601 56.0396L57.0977 55.2751L27.0112 38.082L25.6736 38.8464Z" fill="#242993"/>
<path d="M22.394 40.7206L50.6138 56.8474L51.9516 56.0827L23.7316 39.9562L22.394 40.7206Z" fill="#242993"/>
<path d="M20.2578 41.9413L53.4837 60.9288L54.8216 60.1643L21.5956 41.1769L20.2578 41.9413Z" fill="#242993"/>
<path d="M18.1216 43.162L51.3478 62.1494L52.6854 61.385L19.4594 42.3975L18.1216 43.162Z" fill="#242993"/>
<path d="M15.9857 44.3827L49.2116 63.3701L50.5494 62.6057L17.3232 43.6182L15.9857 44.3827Z" fill="#242993"/>
<path d="M57.5781 57.0787L58.9157 57.8431L60.2536 57.0787L58.9157 56.3142L57.5781 57.0787Z" fill="#242993"/>
<path d="M52.8596 58.1304L55.6361 59.7173L56.9739 58.9526L54.1972 57.366L52.8596 58.1304Z" fill="#242993"/>
<path d="M26.0171 61.6404L16.6777 56.3034C16.3127 56.0946 16.3127 55.7566 16.6777 55.5479L23.0642 51.8983C23.4292 51.6896 24.0211 51.6899 24.3861 51.8983L33.7255 57.2353C34.0905 57.4441 34.0905 57.7821 33.7255 57.9908L27.339 61.6404C26.9737 61.8491 26.3818 61.8491 26.0171 61.6404Z" fill="url(#paint5_linear_1457_5340)"/>
<path d="M33.7252 57.5447L24.3859 52.2077C24.0208 51.9989 23.4289 51.9989 23.0639 52.2077L16.6774 55.8572C16.5649 55.9217 16.4912 55.999 16.4479 56.0803C16.3513 55.8979 16.4249 55.6924 16.6774 55.5482L23.0639 51.8986C23.4289 51.6899 24.0208 51.6902 24.3859 51.8986L33.7252 57.2356C33.9777 57.3798 34.0511 57.5853 33.9547 57.768C33.9114 57.6862 33.8377 57.6089 33.7252 57.5447Z" fill="#91AFFF"/>
<g opacity="0.11">
<g opacity="0.11">
<path opacity="0.11" d="M26.6393 33.4333L68.3196 57.2519C68.7759 57.5127 69.4661 57.5409 69.861 57.3151L94.7333 43.1016C95.1285 42.8758 95.0789 42.4814 94.6226 42.2206L52.9423 18.402C52.486 18.1412 51.7958 18.113 51.4009 18.3388L26.5286 32.5523C26.1334 32.7781 26.183 33.1725 26.6393 33.4333Z" fill="url(#paint6_linear_1457_5340)"/>
<path opacity="0.11" d="M68.4437 37.7037L59.1044 32.3667C58.7393 32.1579 58.7393 31.8199 59.1044 31.6112L65.4908 27.9616C65.8559 27.7529 66.4477 27.7532 66.8125 27.9616L76.1518 33.2986C76.5169 33.5074 76.5169 33.8454 76.1518 34.0541L69.7654 37.7037C69.4006 37.9121 68.8088 37.9121 68.4437 37.7037Z" fill="url(#paint7_linear_1457_5340)"/>
<path opacity="0.11" d="M76.1518 33.6077L66.8125 28.2707C66.4474 28.0619 65.8556 28.0619 65.4908 28.2707L59.1044 31.9202C58.9918 31.9847 58.9181 32.062 58.8749 32.1433C58.7782 31.9608 58.8518 31.7554 59.1044 31.6112L65.4908 27.9616C65.8559 27.7529 66.4477 27.7532 66.8125 27.9616L76.1518 33.2986C76.4041 33.4428 76.4777 33.6483 76.3813 33.831C76.3381 33.7494 76.2644 33.6722 76.1518 33.6077Z" fill="#91AFFF"/>
<g opacity="0.11">
<path opacity="0.11" d="M80.2574 46.0442L45.6211 26.2508C45.3902 26.1188 45.1057 26.119 44.8748 26.2511L32.541 33.3143C32.3638 33.4157 32.364 33.6689 32.5412 33.77L67.1614 53.5541C67.392 53.6859 67.6763 53.6859 67.9069 53.5541L80.2574 46.4998C80.4346 46.3987 80.4346 46.1453 80.2574 46.0442Z" fill="#ADC8FF"/>
<path opacity="0.11" d="M80.2577 46.5006L80.1336 46.5713L45.6214 26.849C45.3905 26.7169 45.1059 26.7172 44.8751 26.8492L32.6653 33.8414L32.5415 33.7707C32.3643 33.6693 32.3643 33.4164 32.5412 33.315L44.8751 26.2518C45.1059 26.1195 45.3905 26.1195 45.6214 26.2515L80.2577 46.0449C80.4349 46.1457 80.4349 46.3992 80.2577 46.5006Z" fill="#91AFFF"/>
<g opacity="0.11">
<path opacity="0.11" d="M35.7688 32.8325L65.943 50.0759L64.7478 50.759L34.5734 33.5156L35.7688 32.8325Z" fill="#242993"/>
<path opacity="0.11" d="M38.9479 31.0158L67.6281 47.4052L66.4329 48.0884L37.7527 31.6987L38.9479 31.0158Z" fill="#242993"/>
<path opacity="0.11" d="M69.7698 48.6292L72.4483 50.1599L71.2531 50.8431L68.5746 49.3123L69.7698 48.6292Z" fill="#242993"/>
<path opacity="0.11" d="M67.4038 50.9108L69.2691 51.9767L68.0737 52.6598L66.2086 51.5939L67.4038 50.9108Z" fill="#242993"/>
<path opacity="0.11" d="M40.9401 29.8773L74.4404 49.0214L73.2452 49.7045L39.7449 30.5604L40.9401 29.8773Z" fill="#242993"/>
<path opacity="0.11" d="M42.9322 28.7388L76.4326 47.8832L75.2374 48.566L41.7371 29.4219L42.9322 28.7388Z" fill="#242993"/>
<path opacity="0.11" d="M44.9244 27.6005L78.4247 46.7446L77.2295 47.4277L43.7292 28.2836L44.9244 27.6005Z" fill="#242993"/>
</g>
</g>
</g>
</g>
<path d="M69.3036 27.7995L70.1039 28.3061L70.2011 27.7181L69.4006 27.2115L69.3036 27.7995Z" fill="#42FFFF"/>
<path d="M68.6474 31.7764L69.448 32.2831L70.0157 28.8423L69.2152 28.3356L68.6474 31.7764Z" fill="#42FFFF"/>
<path d="M68.3336 33.6786L69.1341 34.185L69.3595 32.819L68.559 32.3126L68.3336 33.6786Z" fill="#42FFFF"/>
<path d="M68.0085 35.6496L68.8087 36.1562L69.0341 34.7903L68.2339 34.2836L68.0085 35.6496Z" fill="#42FFFF"/>
<path d="M67.7962 28.9461L68.5965 29.4527L68.8219 28.0868L68.0214 27.5801L67.7962 28.9461Z" fill="#42FFFF"/>
<path d="M67.3654 31.5571L68.1657 32.0638L68.4968 30.0578L67.6963 29.5511L67.3654 31.5571Z" fill="#42FFFF"/>
<path d="M66.9689 33.9605L67.7694 34.4672L68.0531 32.7466L67.2526 32.24L66.9689 33.9605Z" fill="#42FFFF"/>
<path d="M67.6831 37.6209L68.4837 38.1276L68.7091 36.7616L67.9085 36.2549L67.6831 37.6209Z" fill="#42FFFF"/>
<path d="M68.1098 27.0439L68.9104 27.5506L69.0073 26.9626L68.2071 26.4562L68.1098 27.0439Z" fill="#42FFFF"/>
<path d="M66.7711 39.156L68.1682 40.0403L68.2621 39.4697L66.8651 38.5854L66.7711 39.156Z" fill="#42FFFF"/>
<defs>
<linearGradient id="paint0_linear_1457_5340" x1="66.7045" y1="59.4358" x2="2.53085" y2="59.4358" gradientUnits="userSpaceOnUse">
<stop stop-color="#42FFFF"/>
<stop offset="0.1507" stop-color="#43FAFF"/>
<stop offset="0.3285" stop-color="#45ECFF"/>
<stop offset="0.5199" stop-color="#49D4FF"/>
<stop offset="0.7209" stop-color="#4EB3FF"/>
<stop offset="0.9274" stop-color="#5489FF"/>
<stop offset="1" stop-color="#5778FF"/>
</linearGradient>
<linearGradient id="paint1_linear_1457_5340" x1="75.2408" y1="28.9464" x2="26.5966" y2="28.9464" gradientUnits="userSpaceOnUse">
<stop stop-color="#C0D6FF"/>
<stop offset="0.2978" stop-color="#C5DBFF"/>
<stop offset="0.6488" stop-color="#D3E9FF"/>
<stop offset="1" stop-color="#E9FFFF"/>
</linearGradient>
<linearGradient id="paint2_linear_1457_5340" x1="75.2405" y1="41.2942" x2="66.8878" y2="41.2942" gradientUnits="userSpaceOnUse">
<stop stop-color="#5778FF"/>
<stop offset="0.1779" stop-color="#5C7DFF"/>
<stop offset="0.3876" stop-color="#6A8AFF"/>
<stop offset="0.6134" stop-color="#82A0FF"/>
<stop offset="0.849" stop-color="#A3BEFF"/>
<stop offset="1" stop-color="#BCD5FF"/>
</linearGradient>
<linearGradient id="paint3_linear_1457_5340" x1="68.7236" y1="55.1745" x2="0.0221576" y2="55.1745" gradientUnits="userSpaceOnUse">
<stop stop-color="#5778FF"/>
<stop offset="0.1779" stop-color="#5C7DFF"/>
<stop offset="0.3876" stop-color="#6A8AFF"/>
<stop offset="0.6134" stop-color="#82A0FF"/>
<stop offset="0.849" stop-color="#A3BEFF"/>
<stop offset="1" stop-color="#BCD5FF"/>
</linearGradient>
<linearGradient id="paint4_linear_1457_5340" x1="45.6397" y1="52.9071" x2="-23.0984" y2="52.9071" gradientUnits="userSpaceOnUse">
<stop stop-color="#C0D6FF"/>
<stop offset="0.2978" stop-color="#C5DBFF"/>
<stop offset="0.6488" stop-color="#D3E9FF"/>
<stop offset="1" stop-color="#E9FFFF"/>
</linearGradient>
<linearGradient id="paint5_linear_1457_5340" x1="33.9989" y1="56.7695" x2="16.404" y2="56.7695" gradientUnits="userSpaceOnUse">
<stop stop-color="#C0D6FF"/>
<stop offset="0.2978" stop-color="#C5DBFF"/>
<stop offset="0.6488" stop-color="#D3E9FF"/>
<stop offset="1" stop-color="#E9FFFF"/>
</linearGradient>
<linearGradient id="paint6_linear_1457_5340" x1="71.9016" y1="37.827" x2="3.16353" y2="37.827" gradientUnits="userSpaceOnUse">
<stop stop-color="#C0D6FF"/>
<stop offset="0.2978" stop-color="#C5DBFF"/>
<stop offset="0.6488" stop-color="#D3E9FF"/>
<stop offset="1" stop-color="#E9FFFF"/>
</linearGradient>
<linearGradient id="paint7_linear_1457_5340" x1="76.4256" y1="32.8326" x2="58.8307" y2="32.8326" gradientUnits="userSpaceOnUse">
<stop stop-color="#C0D6FF"/>
<stop offset="0.2978" stop-color="#C5DBFF"/>
<stop offset="0.6488" stop-color="#D3E9FF"/>
<stop offset="1" stop-color="#E9FFFF"/>
</linearGradient>
</defs>
</svg>
