<svg width="29" height="29" viewBox="0 0 29 29" fill="none" xmlns="http://www.w3.org/2000/svg">
<path d="M17.1569 14.5243L28.4489 3.23197C29.1838 2.49745 29.1838 1.30983 28.4489 0.575305C27.7144 -0.159216 26.5268 -0.159216 25.7922 0.575305L14.4999 11.8677L3.20782 0.575305C2.47295 -0.159216 1.28567 -0.159216 0.55115 0.575305C-0.183717 1.30983 -0.183717 2.49745 0.55115 3.23197L11.8432 14.5243L0.55115 25.8167C-0.183717 26.5512 -0.183717 27.7388 0.55115 28.4734C0.917207 28.8398 1.39852 29.0238 1.87948 29.0238C2.36045 29.0238 2.84142 28.8398 3.20782 28.4734L14.4999 17.181L25.7922 28.4734C26.1586 28.8398 26.6396 29.0238 27.1206 29.0238C27.6015 29.0238 28.0825 28.8398 28.4489 28.4734C29.1838 27.7388 29.1838 26.5512 28.4489 25.8167L17.1569 14.5243Z" fill="white"/>
</svg>
