<svg width="19" height="19" viewBox="0 0 19 19" fill="none" xmlns="http://www.w3.org/2000/svg">
<path d="M11.2407 9.51655L18.6389 2.1181C19.1204 1.63686 19.1204 0.858769 18.6389 0.37753C18.1577 -0.103708 17.3796 -0.103708 16.8984 0.37753L9.49991 7.77598L2.10167 0.37753C1.62021 -0.103708 0.842337 -0.103708 0.361098 0.37753C-0.120366 0.858769 -0.120366 1.63686 0.361098 2.1181L7.75933 9.51655L0.361098 16.915C-0.120366 17.3962 -0.120366 18.1743 0.361098 18.6556C0.600929 18.8956 0.91627 19.0162 1.23139 19.0162C1.5465 19.0162 1.86162 18.8956 2.10167 18.6556L9.49991 11.2571L16.8984 18.6556C17.1384 18.8956 17.4535 19.0162 17.7687 19.0162C18.0838 19.0162 18.3989 18.8956 18.6389 18.6556C19.1204 18.1743 19.1204 17.3962 18.6389 16.915L11.2407 9.51655Z" fill="#222222"/>
</svg>
